<svg xmlns="http://www.w3.org/2000/svg" viewBox="0 0 591.504 800.504">
  <path d="M310.2581 354.8403l1.6469-.3752 3.0258.2564 1.7067.1581 2.6054.6439.3838.2882 1.7504 1.7013 1.1291-.5053-1.487 2.097-.4267 1.504 1.0818 2.7007 1.8655 3.0479 1.4996 2.4246.855 1.1483-.1303 2.2366-.1187 2.5322.6927.437.7676.8994.7516.0982.6694-.0683 1.0336-.3855.5614-.2957 5.7528 1.909.4096.0505 5.75.1282 1.2515-.028.6275-.1385 2.4724.1085 3.7382 1.503.207.277.0376.3171-.2446 1.751.491.9507.0187.3753 1.6048.5652-.4668.4745-.0571.1385-.017.1366.4374.5933.6043.6045.2758.0973.3534.1984 1.1658 1.0977.4159.4764.0366.2554-.0562.1385-.357.6439-.6276 1.0378-1.3085 2.0082-.7301 1.0771-.4642.5559-.2436.1862-.4222.1694-.0464-.0112-.6695-.7992-.166.0103-.199.1478-.3026.4941-.5142.9405-.0928.7515 1.387 1.1576 1.4202.0393.8363-.4155.217.0196.7684.335 1.4023 1.5039.9658 2.2946v.2573l-.4758 1.167-.2445.4753-1.1747.2265.7409 3.206.4338.3473.806.3958.0482.247 3.4578-.0776.7516-.6635.2276-.2162.3053-.7046.1803-.1675 5.6197.9302 1.3933.8993.2794 1.1398.1678 1.2455.125.526 4.263 1.4233 1.612.4548 2.5063-.5437 1.8111-.5044.7453.2546 3.0812 2.0578 1.9351 1.4561.2268.2162 2.0957 2.8195.1607.496.0188.2265.0383.8329.8533-.3978.3062-.0776 2.8804-.4876.2169-.0196 3.2267 1.1182.9729.466-.066-.6746.2213-.2546.2455-.2891.6034-.5147.0946.0973 1.255 1.6835.3954.7823.2365 1.007.0375.029.5141-.3753.216-.116.6373-.8731 2.8411-6.43.0563-.2882.0375-.9592-.424-.584-.341-.217-1.1666-.9012-.2214-1.573 1.4344-2.3452 2.6697-1.3654.0857-.0196 6.8658 2.2553 2.585.9891.3355.2284.1696.2564.2151.8328-.1133.6111-.0634 1.168.274 1.6535 2.2092 1.7406 2.1243.8403 2.161.5727.3026 1.5422.523 2.1262.1303.2386.59 1.0275.2366.2377.4829.3472-.7275 1.1576-2.4957.8525-1.2692.2359-.5016-.1273-1.6906.276-2.8643.7609-.2366.1384-1.2978 1.1558-.0276 1.167-.8248 2.4545-.1794.0786-1.131.3463-.0356-.059-.4963-.6822-.5293-.2068h-1.4058l-.2642.0899-1.4576 1.1884-.0098.0665.0187 1.2876-3.888 1.473-1.1828-.1376-.5105-.6915-.4204.9012-.674 5.0935-.0758.9808.0277.4735.0187.2676 2.2226 4.1447.7078.7337 2.6376.742-.199 1.2091-.9685 1.3457-.084.0973-1.8217 1.999-1.7272.4145-.132-.0197-3.2518 1.4646-2.8839 1.326-.4624.2068-.1883.1394-.2597.7899 1.7557.5437.3124-.2958.6096.0197.0848.0384.2071.377-.1312.5054-.0937.0786-.1884.0974-.7515.088-.3133-.1283-1.0319.7131-2.2082-.2854-3.54.1862.4097-2.6324-.391-2.8767-.6703-.7411-.3356.0963-.1223.0815-1.2032 1.1557-.049.7608-2.0004 2.1683-.1892.0776-.6471.3163-.3392.2106-2.7947 4.1138-.1089.3182-.009.0889.665 1.6807.274.4754.816.0196 1.005-.1291.7408.714 1.7709 1.7396.2115.4633.0375.2508-.2972.4931-1.6486 1.6208-1.454.8114-.5454.465-.3963.6533.1232.1862.4338.4548 1.4013 1.0303-2.3787 1.1174-3.665 1.3644-11.1412 1.6049h-.1901l-.2634-.1582-.5034-.495-.3775-.4548-.2544-.1975-.3472-.1759-1.1747.2648-.141.089-.1402.2386-.1428.7215-.0178.1984-.3919.3865-1.6843.554-.5248-.2761-1.495-1.7528-.59-1.109-.4901-2.0474-1.5674.1993-1.7691-1.0996-.0937-.1675-.0768-.524-.0303-1.9709.1267-1.4738.3963-.612.3954.0102.066-.0982.241-.6326v-.1376l-.5042-.772-.2919-.4464-.2365-.2068-3.1027-.6252-1.4049.1966-.1517.0599-.9676 1.078-.1981.7028-1.9629 1.662-1.354.6532-.0857-.1479-.4061-.1291-.383.1291-.198.2359-.1304.5839v.188l.1017 1.998.6177.4464.3963.1488.2651.7814 1.0702 7.0756v.059l-1.7905 6.4318-2.7768.4828-.8373 1.763-.0857.1292-.731.0272-1.9726-1.999-.6212-.9497-.0277-.0983-.0875-.4539.0955-.5437.3767-.4464.2928-.2667.4954-.3855.3775-.13.0384-.5728-1.2112-2.216-1.4487-1.2764-.7989-.0094-.664.1563-.1134.1001-.3419 1.078-1.0416.4642-1.213.4352-.358-.0496-3.1999-.5942-1.2032-1.3757-1.0149-1.8987-.49-.526-.1687-.0393h-.1428l-5.9268.0394-6.7015 2.8691-.1892.8787.1615 2.8608.0768.3472.3276.2882 4.9128 3.6384.1526.0524.556.1376 1.1444.394.5248.29.3686.4923.0482 1.2867-.2.5755-.1222.1563-.6105.4352-.6213.1703-.2543-.0393-2.5243-.6055-2.1627-.523-.5186-.1087-.2597.2097-.0652.1974.0375 1.5909.1285.0608.1232 1.6424-.4008.7112-.1678.0804-.2463.0412-4.6665-1.794-1.6379-.4229-.1705-.4155-.3722-1.0883-.5953-2.6923.3035-3.3418.2356-2.6324-2.717-.6523-3.5677-1.4037-2.0387-2.3358-.2749-1.1089-.2267-.9498-.7881.4145-.8257.3959-1.6566-.1872-.1509-.0196-.4757-.7038-.0188-.5446-.349-2.2543-2.1707-4.8279-.4499-.495-.4891-.4155-4.1729-1.8276-1.2987-1.8426-1.6423-2.2534-.4811-.0525-5.9268.6635-1.6183 1.88-.8818.92-.3303.1675-.249.0814-.1803-9.083.1517-.3452.3535-.5962.19-.2161 1.6094-1.414-.6605-1.9297-.6935-1.267-.2642-.2265-1.1354-.1189-1.9262-.1188-.4293.1189-2.17.889-.2168.2957.0375.5746 1.0996 1.4336-.482 1.1576-.8256.1769-.9684-.1703-2.9206-.5428-.0562-.8722.0642-2.4808.2705-.4146.6052-.9105 1.2398-1.6058 1.1193-2.5024.4213-1.1576v-.306l-.1509-1.3775-.8274-1.0565 1.205-.3977.2356-.089.1134-.1365-.0098-.4352-.084-.9115-.3418-.6653-.009-.524.3196-1.6817.1232-.3266.9783-.8329.4097-.305 1.4477.1974 1.2327-.0384.6382-1.0799 1.4487-3.8387-.0188-.743-.864-5.5287-1.3076-4.504.5427-1.1866.1312-.278.1312-.0898.2365-.1292.7694-.0982 1.2791.1375 2.0485.2967 1.146.6541.2643.3341.2588.2087.415.1282.3687-.0505 1.5299-.2172.2151-.1675.1616.0403.4597-.1872.2436-.1488.491-.612-.1313-.1694.5249-1.0883.1517-.4651-.4686-.8806-.4525-.4932-.1794-.1984-.7989-.5652-1.603-.611-.1893-4.0362-.5463-1.1492-1.204-2.6792-.0947-.2498.407-.5325 2.3297-.5952.9399 1.0088.3204 1.2372.249.4145-.0098.0412.3312.6504h.5079l.166-.2068.0375-.7337-.0375-1.6713-.1839.029-.3195-.4932-.0286-.248.3776-1.2474.298-.2864.3294-.1694.548-.4145.2866-.743-.249-.5728-1.1095-.277-1.1746-1.2071-.5195-.4455-.7293-.465-1.4763-.527-4.0693-2.1645-.8167-2.711-1.6852-.7524-3.0473-1.1388-1.0818-1.4346-1.2836-3.2258-.5186-2.027-.1312-.9404.1777-.8506.1794.1291.1892-.059.4391-.1787 2.7447-1.938 5.9465-3.6207 4.7467-1.0088 7.1586-5.088 2.3144-1.937.1277-.1095 1.3451-2.1065.1312-.307.207-.7617-.0383-.0899-.3874-.1871.8114-1.8118.6168-1.0874 2.1145-.583.1705-.0196.7498.2555 1.3736.613.3723.1768.6596.436.3454.2387 1.08 1.6816.5195.2864 2.1717-.2864 4.0764-1.0883.8265-1.6526 1.8584-5.175.2455.0402 1.031-.1488.1293-.0805zM319.1661 132.393l.806 2.8093-.8434 1.9989-2.3413-.177-4.661 3.4326-1.2667 2.128.0188 1.692.8819 2.3152.1803.3565.2954.8413.0571.4744-.1615 1.4047-.3731 2.9188 3.399 3.4624 1.362.8713.2.0898 1.1175-.059.3588-.1085.0277-.1684.1928-.1189.1526-.0393 1.005.2162.8016.407 1.1782 1.3551.6346 3.541-1.2514 1.8212-.3579 2.2749-5.8527 8.133-1.9155 2.3649-.8926 1.0284-.274.2967-3.4221 2.7203-1.231-.277-.5783-.2564-.4552-.029-.8917.5437-.5418 1.197-1.5888 7.579.0473.0393-.0759.0496-.3883.2386-.2874.1385-.432-.0411-3.6926-1.137-.5177-.2172-.8176-.5044-.731-.5446-2.1601-1.167-5.2627-2.5229-1.4308-.8207-.4811-.9695-3.3302-3.7507-.2178-.742.1231-.583-.4257.0589-.3392-.0795-3.1187-2.2843-.1901-.1882-.7587-2.2665-.0571-1.9493.265-1.108.5802-.5942 1.836-1.5534 1.1176-2.493.0375-.0973.2044-.6233-1.4255-2.0279-.6703-.8328-.1277-4.373.5419-1.3251.1133-.802-1.146-.6822-.1795-.0777-.2544-.0402-3.823 1.939-1.278.8796.4435.583-.7176 1.8201-4.3567 3.5308h-.6695l-.4498-.0496-.8578-.1974-.2223-.1881-1.1077-.028-1.0059.0589-.0652.7121.0099.306-.292.5269-.331.524-3.1473 4.1363-.674.3453-.4721-.2171-.939-.9096-1.5183-1.939-.1133-.6242.0839-.4847-.349.0196-.2071.2957-.6472 1.9596-.2276.8413-.3775 1.4533-.3999 2.128-1.4978-.1693-1.471-.5157-4.7833-3.2743-2.0217-1.7004-.3883-.5727-.3615-.8226-.3133-1.1679-.075-1.5038-.0928-.4352-.373-.9573-.698-1.7621-.3071-.555-.8766-1.0293-2.0868-1.6227-.7685-.7412-.524-.771-.6605-1.197-.6846-1.7321-1.6272-3.6712-.4668-.9012-2.1039-3.1845-1.6093-1.2175-3.1669-1.4346-1.6905-.2377-1.8486.03-3.2436-.0496-2.8483-.1984-.9024.028-.7506.1385-.2366-2.4433-.1508.0393-1.321.6934-.2821.1085-.415-.0103-.3259-.1394-.9345-.8001-1.6986-1.4552-.8346-1.2371-.5766-1.6021-.2883-1.0294-1.1934-2.9974-1.8592-3.0975-.3303.0496-.282-.0496-.0473-.1993 1.3442-1.166 1.0524-.613.856-.188 2.227.554.4248.306.3919.4547.582.0908.7524-.2087.4534-.1974.2214-.1788.2267-.2667.1981-.3565.1322-.5334.1517-.6242.0098-.2368-.0294-.2873-.0929-.336-2.8795-6.2333-.2124-.277-.614-.1975-.2313-.0496-.8497.1769-.3535.2377-1.1184.7702-.4641-.3051-.9676-.6523-.1312-.1684-.4757-.9517-.915-2.6119-.0901-.4454.0188-.159.2124-.5653.948-2.0971.5765-1.2755.0857-.3959.275-3.265.0463-.6729v-.1871l-.2062-.0506.1616-.1375v-.277l-.0562-.5447-.1134-.3958-.2446-.4857-.3302-.4454-.1518-.1189-.2686-.0795-3.3927-.0094-.6757.0496-2.1708.1685-.906.9301-.5623.702.0473.0589.4338.1085.1276.0113.076-.06.0276.0206-.0464.1077-.1036.1188-.1374.059-.3205.0402-.357-.0496-3.963-2.187-.5017-.3565-.4856-.9695-.0946-.4941.0491-.6916.225-1.3457.199-.7542.308-.8207.1784-.3556.0938-.1095.8167-.4455.0562.8507 1.0979.8207.5016-.0496.1509-.059 2.327-1.4841.1133-.0974.074-.1984v-.8497l-.0187-.1694-.0562-.5146.4802-2.2563 5.9179-1.077 1.1559.129 1.2317.613.9774-.278 1.1202-.5324.9756-.5343 4.8851-4.3244.1223-.1366.5766-.9995.1518-1.0293-.0188-.3276-.1883-.7308-1.1291-2.6325-5.7242-8.528-2.6563-3.9575-1.0533-.6635-1.6182-.8-1.0524-1.0884-.308-.4061-1.968-5.3622-.6918-3.5402-.7784-1.7022-.1035-.1478-2.011-2.494-1.887-2.2047-.0276-.1881.3454-3.3839 1.3246-3.1462 1.6326.031.614.0785.3678.1769 1.0711.7711 4.8548-.2658.6275-.1085.6792-.0796.4758.03 3.6381.2555 2.4172.217.5034.1582.2276.0983 2.7697 1.3457.7881.5942-.032.1975.3918.248.623.3761.7881.089 1.4701.1085 1.1675-.3275 1.2104.0102.3588.0702.6462.2265 2.6332 1.1492 1.8601.9002.2437.5933-.3294.4473-.1883.366.0276.3958.1304.4155.6051 1.662 4.1988.4351.9024-.0898 1.304-1.2072.1598-.1694.066-.5933 2.3288-.4754.9792.4455 1.2121-.5138 1.1934-.3472.8247-.4061 4.5888-4.2832.4204-.0898 1.9245.7215-.3633.613-.9194 1.7714 3.822 1.6433 2.959 1.267 5.269 6.254.9032.5044.8006.2368.4597.0505h.0848l.0929-.1085 1.4397-3.2557-.0768-.1974.1607-.4651.158-.2873.0928-.0786.9435.613 1.5477 1.0985.9569 1.8398 3.016 9.9149-.0562 2.027-.1508 2.8401-.0215 5.0365-.0392.4146-1.496 2.6923-.1687.246-.5624.6832-.9291.8207-1.43.8713-2.3037 1.2371-1.5674.8104-.3677.0898-.2143-.1581-.1642-.2274-.5507-.0197-.291.0684-.2383.1375-.1036.1292.6329 1.3157.2445.4352.3258.3761.433.277.2454.0684 1.7834-.2873.6087-.1376.275-.1694 1.6905-.7814v-.0674l.6793-.2386 4.5593-1.1389 3.415-.7018.3196-.059.4641-.0112.4204.0805 1.3255.9096.599.5044 1.27 1.3167-.4105.7411-.9345 1.474.1606.5642.6703 3.5233-1.1085.9798-.5008 1.0593-.1133.5727 1.2032 1.663.3017-1.1501 2.0672-4.738.4097-.4745 4.0729-2.1074.9184-.1881.4972-.0197.557.0992 1.0604.306 1.52.454 11.1002 5.8085.648.3846 1.3246.8909.3303.306.4284.6822.2071.4856-.0562.0506.1035.2676 1.8218 2.057.3776.3265.2169.1292.5043.1487.5552-.0102 2.384-.1189.3508-.0496.4811-.1581.665-.2883.4722-.2957 1.6593-1.4056.6471-.6915 1.0238-1.2765 1.5719-1.4551 2.2466-1.8118 1.0604-.2872 7.2826-.3463-.2267 3.3446-.4106.7514-.0571.2967.1312 2.1654.5427 6.2849.664 5.3023-.0276.0973-.075.0692-2.326 1.9886-.5838.4352-2.8822 2.1186-2.6545 2.5613-2.3368 3.0779-.3936.3462-.4445.2873-.4472.1769-1.9923-.3753-.2812-.0795-.4248-.3163-2.818 3.1452-.2364.2574-.1509.3275-.1562.5643-.0562.4454.0107.2668.0928.4763.6186 1.5637.524 1.0285.34.5642.3776.5044.207.2097.4669.307.4043.0682h1.6915l.2061-.029.7873-.2087.2838.0393.4615.2274.3642.3163.282.3856.1794.4866.0099.1778-.1232.9789.1133.742.466.2097.2731.0383.3695.0225zM181.991 35.3014l-.9952 2.681-.815 2.4247-.265 1.3251-.2223 1.8997-.1883 2.2272-.5668 8.5673-.0099.6635.491 1.1875.282.3856.1152-.0402.0973-.1685.0187-.3855.216-7.3115-.1223-.2162-.124-.436v-.1582l.1419-1.4056.3874-1.296.2267-.307 1.8976-1.2952.541.4942.1044.1478 1.287.7608 1.2497.9508.416.1479h.1927l2.4457-1.3064 1.5612-1.3654-.075-.0692-.3133-.0796-.4713-.0496-1.9244.0796-.4767-.0796-.2445-.0898-1.6469-1.5413-.0357-.0402-1.462-1.574-.3678-5.568 1.015-2.1187.4533-.6046.8542-.713.0848-.0506 1.081-.2667 1.1362-.743 1.396-2.8673-.0187-.0786-.0973-.0908-1.8923-.8216-.5141-.1582-.3017-.0196-.1607.059-.4597.3069-.1222.1282-.3776.6438-1.6986 4.1943-.3303.8787-1.3924 3.162zm7.5272 20.0758l-.458-.0103-1.7324.3463-.5034.1965-.3776.3079-.4865.524-.3579.6728-.4713 1.1895-.0705.772.0812.3958.15.2864.1794.1581 3.573 1.8408.74.217.8649.059 2.9116.1189.3767-.0197.1901-.0889 1.653-3.6206-.5346-2.2375-.1312-.2564-.8158-.5943-.9872-.3668-.4053-.0973-.2642-.0693-.6373-.0505-.7408.277-.282.1198-1.464-.0702zm-9.8524 8.4887l.0099.2077.2686.7215 1.0908 1.8408.5766.9302.6542 1.0584.1518.0786.3133.0505 1.014-.0094.066-.0206 1.0604-.5437.1035-.1188.2696-.7028-.0375-.0973-.0759-.0403-1.0657-.5652-.9247-1.4935-1.1292-3.3044-.1267-.6924.1553-.4651.2455-.4754.9104-.9396-.0759-.0982-.1455-.0506-.3597.1694-2.1895 2.086-.282.3855-.3348.8712-.0383.7823-.1045.4352zm15.3971 3.3839l3.2589-.8507.4266-.2667.308-.4155.1678-.5652.1624-.9508-.1517-.0786-5.6108 2.3049-1.471.6345-.1303.3864.0464.1376.939.801 2.0547-1.137zm-3.8131 4.8175l-.2356.03-.1795.159.0474.1675.2267.3678.1508.1188 1.4344 1.1165.2544.1778.7605.0103.4632-.1376.1036-.1984-.0099-.4146-.6703-1.078-.0982-.1582-.0946-.0692-.2919-.0898-.59.1778-1.271-.1797zm4.9315 8.1836l.491.4642.2784.0898.5954-.03.9113-.1974.7784-.2377.2169-.1366.3115-.3678.9854-2.2843.5346-1.3167.075-1.385-.207-.1291-.5526-.0973-.4998.0683-1.9833.6532-.282.0889-2.3083 1.0088-.3294.1778-.1901.2554-.0464.249.0259 1.0696.1151.4548.1312.2938.2071.2976.1223.0983.6194.9124zm13.586-2.5145l-2.808 1.91-.3686.4763v.2545l-.0099 2.4153.6052.4941.524.277.6926.1685 1.9405.1974.815-.0084 1.138-.991.4954-.6438.075-.1076 1.3353-2.1477.0276-.1479-.216-1.2184-.282-.3331-.8364-.1994-2.0012-.0804-1.1264-.3154zm118.181-.6822l-.4194-.1479-.1687-.1694-.0866-.1478-.1401.059-.2928.2395-.7034.8385-.5418.7917-.3186.5849-.623 1.4551-.3089.9293-.0848.306-.274 3.1864.1134.525.1223.1872 1.4022.991.2214.1085.3499.059.0473-.0496-.0473-.0403-.0188.0403h-.0562l-.3508-.1292-.8524-.5652.0089-.583.1705-.1684 2.0645-.7627.94.3182.3507.1581.3669.1582.1187.248.2553.7823-.0768.8712-.1312 1.196 4.52.8796 6.9649.0693.0616-.0197.0285-.0898-.0383-.554-1.1238-2.5323-.9238-2.0475-2.8081-4.5031-2.8822-1.574-4.8351-.8984zm-128.3368 46.69l-.1606-.1075-.3115-.336-.4499-.5746.0098-.3743.1036-.4548.1856-.3958.1509-.2171.1972-.1975.1803-.1188.225-.0983.2222-.0197.275.2387.0187.059-.1312 2.3853-.2589.1872-.2562.0243zm-42.1871-14.9896l1.0532-.1086.0652.5746-.773 1.4234-.656-.059-.2544-.059-.7882-1.5113.0375-.2283.4758-.3463.3882-.1385.4517.453z"/>
  <path d="M358.4426 220.1322l1.246-.5334.2276-.0393.4347.0393.1875.0496.2035.1188.1892.1685.0652.2274-.0188.188-.0946.1591-.7685 1.0771-.0482.2873.0482.3566.1232.2667.2169.2386 3.1865 2.6615.1928.129.4713.09.275-.0796.6631-.4857.8837-.5446.1508-.029.4811.0795.3535.13.34.1667.199.1094 4.6183 2.8103.2178.2873.0848.248.0277.2573-.0188.2264-.0847.2574-.1241.1778-.4767.424-.4623.5156-.1696.3752-.0473.1872.0562.4548.2267.465.2.2078.3115.1685 3.2061 1.3653 4.6558 1.575.2544.0496 7.3397-.9106.6659-.6438-.1196.1581-.2259.6046-.0285.6344.7515 1.8595 1.4674-.5147.8168-.4464 1.3826-.6532 1.321.6233.557.3865.0848.2554 1.1005 4.5817-.1803 1.6929-1.3076.6822-.6007 1.2072-.3115 1.0687-.3785 4.1559.0286.0973 1.1094 1.8988 1.0604 1.6732.2455.831.0188.5437-.367 3.4447-1.4548 1.1164-.3776-.0197-.3686-.1085-.806 1.5225-1.5844 6.6592-.0383.7019.0383.0402 1.6326 2.0279.7685.9601 1.0514-.1778.9962-.306.283-.437.0365-.1376.1616-.8787 4.9512 1.8005.3293 3.0573-.2749.8722-.5141.9582-.7721 2.0176.1678 1.544.3588 2.6709.5802 3.207-1.0613 2.245-.2214.1085-.0946.1582-1.0425 2.405-.5079 1.6713-.1142.4464-.242 2.3152.2045 3.7694-1.6335 3.879 2.6118 3.512 1.8628 3.0086 2.3644 3.2248 1.4853 1.7612 4.097 2.6717 6.4355 2.6212 3.5355.5643.6846-.1189 1.6263-1.2071.1366-1.2671.3963-.554.8265-.0112 1.778.8628.6178.4136 1.4299.8413 1.6173.8787.3116.0197.4284 1.3447 4.3978 2.653 2.1618.5727.4624.0197.9488-.3575 4.3504 2.4247 2.7028 2.93.265.1759.142.0197 2.1038.1974 1.8307-.7805.3017-.1993-.0562-.6223.806.0393.3677.248.648.6728.1232.5737.0188.583-1.5513.2583.0098.2077.008.2368 2.9643 10.9527.4284.407.2446.2358.415.8806.0375.4464v.13l-1.2487 2.3546-.4641.5259-5.7563 4.0062-1.92.277-5.8535.2966h-.0473l-8.501.1769-.8275-.3266-.0928-.059-.6284-.4856-.898-.335-.306-.0983-.4723-.0898h-.9015l-.3204.2077-.2401.2966-.1143.2162-.0937.554-.614 1.7331-.1991.1685-.723.5942-.74.5737-1.4022.7121-1.8102-1.296-.2928 1.049-1.7735.9198-6.7194 2.0167-2.0476.2096-2.2654.0496-.59.0786-4.6994 2.5931-3.092 2.8889-.1785 2.2365-2.1788 4.9664.3481 1.3456.9016 3.1668.125.059.0365.0786.199.6438.864 5.116.1616 1.4842-1.1844.4754-1.4309.8104 1.496 4.2046 1.13 1.7116.3562 1.7799.0375.249.3356 2.2646-.0188 6.7677 1.8164.4061.2794.1488.4811.5437-.0482.366-.5944.5268 2.053 1.8894 1.2361.9115-1.4334 2.345.2267 1.5732 1.1603.9012.341.217.4258.584-.0375.9583-.0563.2873-2.841 6.4308-.6374.861-.2178.13-.515.3753-.0375-.03-.2356-1.0088-.3963-.7804-1.255-1.6845-.0928-.0973-.606.5156-.2429.2864-.2222.2573.0651.6738-.9684-.466-3.2312-1.1183-.2178.0197-2.8732.4866-.3124.0786-.8542.3949-.0384-.831-.0187-.2265-.1616-.496-2.0949-2.8195-.2267-.2162-1.936-1.4552-3.0803-2.0569-.7453-.2573-1.812.5034-2.5055.5447-1.6102-.4539-4.2657-1.4233-.1223-.526-.1704-1.2474-.2785-1.137-1.3934-.9012-5.6206-.9302-.1785.1694-.308.7028-.2266.2162-.7498.6635-3.4588.0795-.049-.248-.8043-.3977-.4338-.3444-.7417-3.207 1.1755-.2264.2437-.4764.4766-1.1679v-.2545l-.9684-2.2965-1.4005-1.5029-.7685-.334-.2178-.0206-.8373.4145-1.4192-.0383-1.388-1.1576.0947-.7524.5132-.9396.3017-.494.199-.1489.166-.0103.6704.8011.0491.0103.4195-.1685.2437-.188.4632-.555.732-1.0874 1.3076-1.9998.6275-1.0369.357-.6438.0571-.1366-.0383-.2565-.415-.4753-1.1667-1.0987-.3535-.1974-.2758-.0992-.5989-.6036-.4427-.5942.0187-.1386.0563-.1375.4659-.4754-1.604-.5634-.0187-.3761-.4918-.9508.2463-1.751-.0384-.3162-.208-.277-3.7372-1.5039-2.4734-.1085-.6283.1385-1.2505.029-5.7465-.13-.415-.0497-5.7528-1.909-.5623.2957-1.0327.3856-.6704.0683-.7488-.0974-.7703-.9002-.6918-.4351.1178-2.5333.1312-2.2375-.855-1.1473-1.4996-2.4247-1.8646-3.0488-1.081-2.7017.425-1.502 1.487-2.098-1.1291.5044-1.7513-1.7004-.382-.2873-2.6037-.6438-1.7084-.1581-3.0259-.2565-1.6477.3753-.3302-.1095-.0482-.0496-.2687-.3855-1.1291-1.8979-.1232-.3677-.1981-1.196-.075-.801.1883-.4941-.8363-2.086-2.6894-4.1662-.9212-.5334-.6266-1.3765-.2365-2.6409-.009-3.235.1304-.4754.3195-.4352 1.9155-1.662.3455-.1469.34-.0196.1598-.1189.9113-1.4945.0938-.3275v-.6916l-.067-.613-.0928-.2666-.4668-.6046-.7177-.306-.7988-.306-.0188-1.5234.0188-.1704.6766-1.0284 1.1353-.3959-3.3302-2.623-1.5058-2.2272 3.7551-.4137 1.5808-1.633.0473-.1282.0375-.2676-.141-.4145.0937-.891 1.7173-.5436.9104-.1872 4.4942-.059h.2267l.8444.2087 1.6272-.0505 1.2371-.277.3195-.1376.8364-.6241.4624-.088 3.0642-.0992 1.5245.159.0973.09.274-2.8899.341-1.8004 1.811-1.356 1.6755-1.4346 1.0612-1.6601.1464-.2574.0465-1.3653-.0929-.335-.0535-.0684-.1509-.0205-.7846.1095-.4168-.0272-.5936-.3762-.3356-.277-.1606-.1778-.1232-.2873-.0563-.3949.1045-.7028.3677-.9798.2598-.5043.291-.1984.8907-.4361.623-.1675.9676-.2097.523-.7318.0295-.059-.0187-.0795-.391-.902-1.279-1.8698-1.2122-1.2755-1.28-1.473-.0481-.0898-.3722-3.8396 1.096-1.604.5.1292.1606-.0496 1.006-.4848.722-.6045.0482-.1675.0366-1.3158-.0464-.3677-.5516-.5653-.6882-.6223-.2044-.0982-.283-.0506-1.1559-.7523-4.0389-5.4006-.764-1.7228.5578-1.4542 1.9985-1.1286 1.5531.0692-1.6272-1.9773-1.1746-1.574-.6748-1.2072-.3026-.7028-.3017-1.2671.1607-2.0476.0107-.0392-2.4984-5.0759-3.3266-4.9775-2.3306-1.8005-2.3501-6.7275.0758-.5325.1312-.5652-.199-2.1261.0187-.1881.4544-2.0476 1.8405-.5437 2.3885-.5147 5.4118-.1478 2.5447-2.9.1803-.396.017-.1478-.084-.4248.0385-.7038.1508-.613.2919-.3555.2303-.0974.3035-.0299 8.268.3753 3.4775.713.6659.7215.2811.307.1134.2966v.2555l.0384.1198.0937.0683.283.059 2.8152.3079 1.0059-.2976 5.0824-2.6016.1312-.1469.798-1.0883 1.5718-1.5928.9961-.5942 1.098-.2667.7684.0103-.7122-1.7518.514-2.9984.1982-.9489.3026-.6635.7418-.1478.074.0393.341.495.5793.335.6605.0684.0286-.0496 2.2127-3.4036.0098-.0795-.0696-.0842z"/>
  <path d="M443.9452 350.6648l2.151 3.6318.5142.2957.6552-.4463.2927-.2948.1687-.2882 2.361 1.325.3998.7609 1.6656 3.8302 1.006 2.5725.198.6327.141.6335-.1972 4.8783-.69 3.4522 1.364 1.7125.199.5933.1892.3753 2.0369.0496.4579-.1189 1.5254-.4463-.0928-.9985-.0098-.1376 2.3385-2.1757 4.0506-2.2769.5293.4249 2.0574 1.9212 1.9155 1.6311 4.387 2.8215 2.5903.8104.3115.0393 1.7745-.0496 2.959-.089.415-.6344.3026.407.74.425.4543.0973 2.7696.3565.7507-.5334 1.836-.9508 1.4077-.554 2.492.0796.291-.0506 6.715-1.444 2.3778-3.2752 1.2693-5.1647 1.3504-4.156 1.8932-2.8785.3535-.059 1.1559.1975 2.7375-.0898 3.5865.4857 2.6152.9498 3.8792-2.2955 3.0723-.4137.2919.1685-.0768-.5044-.0098-.3566.1133-.3368.3214-.2368 6.1999-2.3058 1.9717.802.133.6223.391.7028.1311.1581.3785.089.4758.0692 2.85-.2967.1508-.059.4195-.5146.141-.2162.0947-.249.5793-2.1972.7364-.7122.873.7421-.8918 1.8295-.0268.1479 1.1354 2.8.391.494.9577.3669.764.2274.7873.059.8373-.0684.216.0197 7.3183 2.8588.2.1086 1.4718.8226.0928.0889.3874.6522 1.1291 1.999.0188.3855-.0473 3.7694 4.3504 9.7745.59 1.8912-.0285 2.7101-1.0328 2.522-.2026 1.1183-1.7432 13.427-.1973 1.5328-.7685 1.1388-.6194 2.3236.232.2275.0188.0795-.1937.9994-.6596 3.017-1.0711 3.4242-.2642.4744-1.3693 1.8305-1.2317 1.632-1.2497 2.5632-.2829 2.2543-.4008 2.2656-.1303.6654-.3133.1974-1.2782.118-.4204.0121-1.8967-.3275-4.8816-1.94-1.8316-.771-.0839-.7216.7498-2.2787-.7498-3.513-1.8878-5.7673-1.1844-1.197-4.7388-4.1942-.466.3275.1411.6326-.075 1.3457-4.2469.6439-.4436.0505-.1508-.0103-4.097-1.6124-.1616-.0908-.1731-.1581-.8596-1.0687-.1839-.159-.132-.0282-.632.0487-.325.4258-.2445.584-1.6557 5.4613.0758.1769 3.242 2.988.207.1675.3963.1778 3.1294.8712.6079-.1759.3311.1572.274.1984.241.3865.1241.86-.6275 2.3451-4.7093 1.78-9.9666 5.3153-1.7405.9976-.997 1.267-.5222.2068-7.5084 2.5155-.7221.0664-1.6486.131.2267.4352.2 2.9702-.0572.395-.2919.7411-2.2073 1.5534-.5436.1872-1.0524.1694-.1232-.0197-.3775-.1188-.4954-.366-.275-.1085-1.6843-.3855-.1374-.0197-6.215.862-.873.1272-6.466 4.0558.1697.4772.2062.8619-.0357.1291-1.6344 3.8864-.8211.5325-1.6977 2.2862-3.4588-1.78-1.9075-.187-5.2421 4.2157-3.0045 3.4719.084.6429-1.6558 4.226-1.3398.308-2.7465-.9115-4.9226.4547-.5382.2162-.1366.0683-.0383.1572-.3785 1.999-.1303 1.9211.1124.6738.1402.3565-.017.4651-.0098.0384-.0768.3463-.199.3462-1.7941 2.346-.357.2574-1.878 1.2063-.666-.248-2.6036-1.7724-3.7292-2.5052-.5846-.3275-.0563.0309-4.7048 2.9674-3.308 1.9502-.9862.1366-4.5022.6046-3.9828 1.1679-6.6042 8.6758-1.8789 2.9-1.7218 3.543-.1839.7112-.2445 2.5829.1401.4276.1152.1292.2026.1076.1883.188.3124.671-.1508 1.7622-.2446.188h-.6926l-.6838-.0888-.8792-.1975-.174-.101-.1036-.1255-.7167-1.2043-.241-.525.0366-.2377.4757-.2171.1607-.1207.1794-.7496-.207-1.5263-5.186-7.8159-1.014-1.2174-.4266-.0197-1.7548.0197-2.427.0898-.3454.2948-.416-.6027-1.7726-.7037-3.989-1.2362-1.031-.1787-.3632-.2761.2776-1.6423.2-1.604.0383-.3959-2.286-2.4742-.6096-.5924-.8256-.1778-1.4014-1.0313-.4337-.4529-.1179-.188.391-.6505.5453-.4679 1.454-.8104 1.6487-1.6227.2972-.494-.0375-.248-.2115-.4633-1.771-1.7415-.7399-.7122-1.006.1301-.8148-.0196-.275-.4764-.665-1.6816.0099-.0898.1142-.3173 2.7885-4.1147.3392-.2087.647-.3182.1893-.0786 2.0003-2.1645.049-.7608 1.2033-1.1576.1223-.0786.3356-.0983.6703.7412.391 2.8785-.4115 2.6306 3.54-.1872 2.2083.2883 1.0318-.7131.3133.1291.7515-.0889.1884-.1001.0937-.0786.132-.5063-.2079-.3725-.0848-.0411-.6096-.0197-.3124.2976-1.7557-.5437.2597-.7917.1883-.1385.4624-.2087 2.884-1.325 3.2516-1.4646.1321.0197 1.7272-.4146 1.8262-1.9989.0795-.0983.9684-1.3456.199-1.2072-2.6375-.7412-.7034-.7327-2.227-4.1466-.0187-.2657-.0277-.4764.0759-.9798.6739-5.0945.4257-.9002.5052.6916 1.1827.1366 3.9086-1.473-.0187-1.2867.0107-.0693 1.4585-1.1875.2642-.088h1.405l.5301.2078.4963.6822.0366.059 1.1291-.3472.1785-.0786.8257-2.4537.0276-1.167 1.2979-1.1688.2365-.1291 2.8652-.7618 1.6906-.276.5007.1272 1.2684-.2349 2.4965-.8506.7257-1.1567-.4802-.3462-.2365-.2386-.59-1.0285-.1313-.2367-.523-2.128-.3035-1.5423-2.161-.5727-2.1234-.8413-2.2091-1.7415-.275-1.6526.0652-1.167.1133-.6139-.216-.83-.166-.2574-.3392-.2264-2.5858-.9995-6.8657-2.244-.0857.0102-2.6689 1.3747-1.238-.9096-2.053-1.8912.5954-.524.0473-.3678-.482-.5447-.2785-.1469-1.8164-.407.0188-6.766-.3347-2.2665-.0393-.248-.358-1.779-1.1282-1.7115-1.4968-4.2055 1.4308-.8114 1.1853-.4744-.1624-1.4842-.864-5.116-.1973-.6439-.0384-.0795-.125-.059-.9015-3.1677-.3499-1.3447 2.1806-4.9691.1794-2.2357 3.0902-2.8897 4.7012-2.5932.59-.0795 2.2645-.0496 2.0476-.2078 6.7185-2.0185 1.7754-.9199.2927-1.0471 1.8102 1.2951 1.4022-.7121.74-.5727.7212-.5943.2008-.1703.6141-1.7322.0929-.554.1133-.217.242-.2958.3204-.2077h.9006l.4721.0889.308.0982.897.336.6275.4847.0937.059.8257.3275 8.501-.1778h.049l5.8519-.2957 1.903-.3481z"/>
  <path d="M54.8483 549.9902l.4294.2677 6.2856 2.056 1.1835.1497 3.8855.278 6.323-1.1698 3.8123-1.1548.5418-.3191 1.204-.7215.1607-.1189.4722-.5053.1883-.3266.5044-.5718.2445-.1769.6837-.3378 2.6992-1.136 1.6986-.6935h.3874l-.0098-.0795.0482-.059.1133-.0973 2.7215-1.6732.3312-.1292 1.7735.2377.8444.1694-.0651.2864-.1518.6531.0099.177.1312-.0385 1.4683-.5951.4766-.424.4918-.582 2.3493 1.6011 2.941 2.799 5.4484 3.0779.6757.1366.723-.2564.9899-.5437.3829-.3968.1607.2892.3204.6822.4106.9508.0187.1853.0563.7823.1115 4.126-.4275 4.8877-1.4862.4772-.341.2574.0188.1366.1616.9311.1312.366 2.2466 1.572.0937.7712-.2436 1.3962-.0188.3472 4.4817 2.6886.6471-.176 1.1095-.5268.3945.3593-.5373.4033-.6373 4.069.0187.0888.515.3678-.4766 2.1364-.5204.7908-.3338.408-.5382.2452-1.2327.6448-2.5519 1.8098-.8926 1.2362-.0089.1497-.0286.554.9114 2.8599.7988 1.1173 1.604 2.4247.142.2068.2365.2002.8738-.0121-.4766.801-3.8935 3.2763-.316.2077-.6507-.217-.8738-.6926-1.296-.5652-3.6802-.365-.3972.0974-.59.2508-.5284.641-.2062-.1076-.7524-.4548-.4276-.2546-1.146-1.1594-.8596-1.5497-.7409 2.3835-1.4629 1.5122-.5954.2106-.2918-.1086-.2589-.2676-.1794-.4651-.5953-3.5149-.2116-1.3344.066-.4941-1.1094-1.8015-1.9682-1.573-2.0842-.7917-1.246-.3678-3.5837-.4249-1.2791.8422-.1232.206.3945.3565.515.7636.5017 1.7677-.0375.291-.1509.394-.8372 1.384-1.5138.279-4.9307-.9387-1.0336-1.1772-.4998-1.267 1.2862-1.6424-.4383-1.2671-1.902-1.1473.066-1.7125-.0375-.176-1.1613-2.9983-1.7227-1.5553-1.4433-.8385-.265-.2891-.8444-1.109-.3017-.4445-1.222-2.3647-.066-.1572-1.3728-5.5906-.0563-.406.0929-.249.623-.5138.5337-.1385-.3623-.584-.4713-.5343-.4347-.3471-3.831-3.0966-2.077-.8114-1.496.3276-.3062.1488-.5944.1488-1.1184-.0712-.4392-.5324-.358-5.847.0483-.1768.2356-.407 1.2014-1.3767z"/>
  <path d="M161.3784 445.241l-.7881.9423-.1312.3837-.0563.5156-.0098.8703.8257 4.5527.1124.2367.3214.1994 1.0443.6223.009.555-.3402 1.108-.6551 1.6816-.2446.6223-.6935 1.735-.1687.4033-.6793.101-.9586-.1984-.9114-.3275-.4471-.9788-1.0819-.4548-.273-.03-.5392.1591-.3356.1273-2.1333 2.6614-.4722.9995-.4195 2.2777.0045.305.482 1.2073.656.9105-1.5674 4.6294-.2552.7243.4534.0085 4.7137 3.295 2.369 4.5423.1785.3734.066.159.656 2.0982.0643.3724.0188 1.8014-1.7834 1.08-1.87-.8002-.5953-.0814-.798.2574-.8819 1.2165.2035.4473 1.497 1.5254.3302.2461.0848.1572-1.497 1.7416-.2641.0103-.8908-.2265-1.6424-1.0097-3.8738 1.762-.3088.1695-.5195.3949-1.362 1.88-.0608.1198.0527 1.2362.3293.4838.4642.2976.7033.5652.8917.8394.1134.335-.341 2.799-.2695.3753-2.0646-.6027-.341-.1385-3.7131 3.2454-1.7745 1.05-.8444.1853.6106 1.8107 4.8315 7.0869.4204.306.2446.0786.3124.0384 2.9777-.0973 1.7744-.2976.2634-.0796 6.2668-2.5135 3.698-1.7612 2.2538-.773.8167-.059.9399.1376 1.6521.3678.5186.2264 1.0328 1.0378.6176.701.3954.6045.6936 1.0883 1.1371 1.0865.641.7945.3346.525.4169.7608.4284 1.0986.0277.889.5293 1.7809.1124.5156-.0178.4651-.0571.3163-.274.6064-.3107.5297-.1196.3303-.1026.4923v.3677l.1687.7412 1.9913 5.276.2687.4633.897 1.3457.466.9208 2.492 2.7288.3071 2.1889-.5516.9488-.132.2761-.0742.1788-.3633.5652-.4257.3575-.3678.217-.3454.1489-1.3442.305-.624.247-.4284.2284-.491.3154-.5622.4548-.1027.1188-.1785.3463-.067.2274-.1508.9114.0937.425 1.4317 4.8165.4481.8628 1.421 2.2366.4517 1.109-.075 1.0686-.358.6523-.1133.465-.0187.395.0374.3462.0938.2892.3784.7907.9765 4.1363.0759.584.3829 2.988-.2115.1693-.1991.2171-.1027.2864.0099.334.1124.2284.142.1685.2311.2086.2053.0992.5204.0974.5891-.0272.8926-.029.5007.0973.3205.1488.307.3753.0866.2966-.0098.2967-.6944 1.9605.1517 2.1449.0473.802-.0375.5324-.2178.8713-.34.7926-.524.8123-.4427.4828-.3954.3191-.4008.2873-.4642.4539-.199.2957-.117.306-.0285.1881.0286.4071.1267.3537.1696.2115.1892.1292.9203.3266.2169.13.3124.2948.2053.3369.1089.5035-.042.3949-.0946.2105-1.2121.6513-1.5719 1.8427-.4382.4145-1.2871.8703-.4918.3163-.457.4146-.3214.4052-.2544.5063-.1606.5736-.0473.6616.0187.0393h.0866l.1517-.0393.141 1.6845-2.1529 9.6266-.1615.4838-.399.6822-.614.7917-.01.0103-.8729.991-.6373.99-.3204.614-.4052 1.1089-.174.8394-.1795 1.3158-.066.2779-.0857.2948-.3776.8796-.2544.496-.2794.423-.3579.3855-.9577.7936-1.4201 1.1567-.3633.2264-.2544-.5521-.1509-.2686-.1312-.0908-3.1106-.3949-.282.1292-.882.0393-.7596-.1591-2.6911-1.138-1.4531-.7009-.1036-.2676-.59-.7524-.6417-.6738-4.454-2.2571-2.9027-.8703-1.2041-.1086-.8739-.4351-4.3781-.6925-3.0535.7327-.2642.0683-1.7361.089-3.4597-.2078-2.5813-1.0313-3.989-2.5697-.8158-.5652-1.2488-1.1174-1.8672-3.7881.0107-.7421.1687-1.1576-.1687-1.3251-2.8545-1.5132-2.1145.3874-1.7834.3332-.972.2667-.0322.4735.0527.2676.1678.2686-.873.0103-.2365-.1993-.1401-.2068-1.6058-2.4256-.798-1.1277-.9113-2.8495.0285-.554.009-.147.8926-1.237 2.5519-1.8108 1.2308-.6439.5392-.2489.3347-.4052.5186-.7917.4757-2.1383-.4864-.4539-.0188-.0889.6373-4.067.5391-.407-.3963-.3557-1.1086.525-.6462.176-4.4826-2.6914.0188-.3463.2446-1.384-.0929-.7786-2.2484-1.5769-.1312-.3659-.1616-.9292-.0178-.1385.3392-.2555 1.4861-.4763.4294-4.8886-.1152-4.1241-.0562-.7814-.0188-.189-.4114-.9518-.3196-.6822-.1615-.2863-.382.3949-.989.5437-.724.2583-.6756-.1385-5.4493-3.0779-2.9401-2.8-2.3511-1.603-.49.584-.4776.4267-1.4674.5924-.1312.0412-.0098-.1788.1508-.6532.066-.2882-.8443-.1685-1.7745-.2358-.3293.1282-2.7242 1.6723-.1134.0973-.0473.0609.0099.0776h-.3874l-1.6977.6907-2.6983 1.1407-.6846.334-.2455.1788-.5034.5727-.1901.3285-.4713.5025-.1607.1189-1.1978.7224-.549.3144-3.8122 1.1586-6.323 1.167-3.8837-.2761-1.1845-.147-6.2856-2.0597-.4275-.2648-1.2505-2.04v-.1086l.075-.1572 1.204-1.8314.383-.424.199-.1085.4534-.0196.2446-.1189.2214-.2386 1.0818-1.1969 5.193-8.8143 1.3363-4.7988-.0188-.6046-.515-3.9463-1.7691-1.2287-1.3112.8797-1.3086.0196-.1222-.03-1.6103-.9788-.2115-.2086-2.767-2.8786-5.0056-3.208-1.5897-1.938-2.9875-5.2133-.3838-.8994-.3008-.7215-1.0533-2.7306-1.3558-5.6888.283-2.812 1.7931-6.706 2.1985-1.9381-.2812-3.9585.1607-1.2465.0098-.0907.141-.2068 6.6542-4.4919.3205-.8516 1.0604-2.3629.391-.1479.8541-.2283 1.961 1.0528 2.5243-.684 1.288.0991-.632-1.0088-.4106-.7608-.1687-.495-.6382-2.492-.291-1.2475 1.6799-.4164 1.9289 1.8136.0705.0767.6435.9929 4.3121-.6925 4.172-1.4954 1.147 1.2764.1231.1872 3.416 1.4841 2.8321.8217 2.684-.8703.6802.1273.4963.1188-.806-1.4449-.8543-1.661-.1035-5.5896 2.892-1.9502.3302.2564 2.1422 1.5029.6088-.1975 2.143-1.0284 1.6692-7.2534.2071-1.2671 1.9351.3163.632.0496 1.5299-.7805.1687-.13.9675-1.05.7837-1.0275 2.3163-.408 4.7003-1.1155 1.4692-.4268.9015-.9498.0652-.0786.3258-1.356.0928-.4454.2464-.5447.2347-.1188.4392.0197.0562.2554v.4268l-.0562 1.4626-.0286.3771 2.6439.0197 1.4299-.3275.731-.2265 2.477-.801 1.204-.6748.1687-.3153.4633-1.969.0187-1.4748-.0767-1.3747.4213-.9424.4338-.4538 1.7271-.059 1.8548.6439.232-.218.7936-.3744 11.6964-4.3646.4115-.3856.956-1.2867.3133-.7992-.1527-1.486-.2544-.2948-.8622-.7608.5757.1385h.2866l1.3942-.5446.1035-.0403 2.1333-2.0082 1.1184-1.6817-.5007-4.651.4052-.5146 2.1422-1.94.3954-.216 1.1514.2367 2.0914 1.5637-.4445.7019-.3874.8132-.4847 1.4533-.0777.3677-.0098.2686.067.4427 2.0574.5652.9952.2676 4.3987 2.6128.2267.2059.232.2779.4901 1.3064-.0098.5259-.2062 1.9774-.067.189-.3284.3575-.0482.6101-.0607.8619.183.89.2544.435.548.7141.241.2789 1.3085 1.3335 1.296 1.4477.358.4061.1187 1.4627-.2687 1.414 2.3636-.8619 1.1354.3191.614.584.8953 1.165z"/>
  <path d="M238.4336 353.9981l-1.155 2.0391-3.432 4.3122-2.8911 4.9766-3.9845 3.265-3.8497 3.2557-.5847.9789-.5337.9404-.5285.0899-2.4644-.1685-.5516-.188-.2446-.1685-.1508-.2274-.5052-1.5235.6373-1.661-1.0524-1.8305-2.6099-1.1566-1.0434.0496-1.9816.5147-1.421.5034-2.5474 1.1398-.6096.643v.4154l.1606.614 2.2467 3.8779.4864.1188.274.1573.0384.2105.1893 1.267-.7364 2.2947-.1312.0505-3.0705-.2087-3.7194.0899-3.365.9395-4.4452 1.4346-2.6376 1.7612-.9675.6625-.9765 1.2671-2.3306 3.513-.5105.7992 1.845 2.7035.1937.1975.2758.0973.6739.0403.0937-.031.8596-.612 4.0764-1.9193.6266-.059.8167.0197.7632 1.0893.1035.2377.665 6.006.1419 1.91-.066.3556-.2446.613-2.5296 5.8178-2.8456 1.1483-.391.0205-.9996-.2498-.6766-.2864-1.5183-.2573-2.5108-.1685-.1321.1076-1.1283.4464-.1124.0693-.6846.6045-.4713.4258-.391.5942v.177l.0848.2863.9488 3.0666.5999 1.3653.3311.8217-.4258.6822-.3454.3471-.8863.8095-1.2845 1.4552-.7622.8712-.0759.1488.0098.2274.2374.3472-.1419-.0608-.5337.0103-.0857.0524-.358.2152-.0473.117-.5337 2.4265-3.8265 6.0556-1.006 1.1277-.1035.1198-.4856.1076-.1615-.0487-3.6436-2.0185-.1687-.059-.8676-.028-.1758.028-.1776.1563-8.4662 8.6684.373.9414.35.772.6882 1.414.714 1.049.1616.889-.0473.3285-1.7905 3.485-.6543.9283-.9015-1.166-.6141-.584-1.1336-.319-2.369.8618.2741-1.415-.1232-1.4626-.358-.4061-1.2977-1.4477-1.3068-1.3335-.241-.279-.5471-.713-.2544-.4351-.1848-.89.066-.8619.042-.611.3312-.3575.066-.189.2062-1.9774.0107-.525-.4927-1.3064-.2312-.278-.2258-.2058-4.3987-2.6128-.9952-.2676-2.0583-.5652-.066-.4436.0107-.2686.074-.3678.4865-1.4523.3892-.8132.4418-.7019-2.085-1.5637-1.156-.2368-.3972.2153-2.1413 1.9399-.4061.5147.5025 4.651-1.1193 1.6816-2.1333 2.0082-.1035.0403-1.3924.5446h-.2883l-.5767-.1385.865.7608.2544.2957.1508 1.486-.3115.7992-.9587 1.2868-.4105.3855-11.6983 4.3646-.7926.3753-.2312.217-1.8547-.6438-1.7281.059-.432.4548-.4204.9414.074 1.3747-.0187 1.4749-.4632 1.9689-.1696.3154-1.1997.6737-2.4813.801-.731.2266-1.43.3284-2.643-.0196.0286-.3762.0563-1.4627v-.4267l-.0563-.2555-.4391-.0196-.2366.1188-.2445.5446-.0946.4455-.324 1.356-.0661.0786-.9015.9508-1.4692.4267-4.6995 1.1145-2.318.409-.7837 1.0265-.9676 1.05-.1696.13-1.528.7806-.6276-.0496-1.9395-.3163-.2036 1.267-1.6762 7.2534-2.1405 1.0294-.6105.1966-2.1422-1.5057-.3311-.2555-2.8929 1.9502.1044 5.5886.8542 1.662.8051 1.4449-.4953-.1189-.6793-.1282-2.6858.8713-2.8313-.8217-3.4168-1.4841-.124-.1882-1.1452-1.2764-4.172 1.4954-4.3139.6925-.6373-.992-.0758-.0767-1.9298-1.8136-1.6798.4165.2927 1.2474.6373 2.492.1687.496.416.7608.6275 1.0088-1.288-.0992.2749-1.1267-.0107-.1076-.415-.8329-2.1798-2.6792-.0982-1.8903.524-.9517.2927-.742.4856-2.3452.075-.6626-.075-1.0378-.1696-.4267-1.52-2.712-.4312-.6896-.997-.6748-.1785-.2536-.2223-.2115-2.2743-.4136-1.071.0197-.1134.0402-.4633.335-.8533.3865-.0866.0197-.0928-.0412-1.7557-2.5903-.283-.5166-.4373-1.4748-.0563-1.415.0759-.2386 2.9393-2.9075.7123-3.383-3.0812-.8497-.7971-1.0705.141-.059.9952-.4061-.698-.6925-.4213-.6242-.8818-1.5226-.2267-.4847-.1027-.4267-1.204-3.1958-.2929-.2873-.166-.1076-3.9773-2.3348-2.3832-4.1765 1.4442-4.8494.2053-.7009.8916-.3678.9194-.2863.3597.0402.075.2546.9211.4875.9489-2.4144-.0768-.6925-.274-.3378-.232-.4932-.0644-.4725.391-1.386.075-.19.3311-.3322.1134-.2498.0464-.3472-.6971-.3154-1.1988-.525-2.151-.8103-.1143-1.2905.057-1.3139.524-1.1567.2544-.8122-.0285-.0974-.4633-.0786-3.5114-.2957-2.2645.5727-.798-.9704-1.2603-2.9169-.5472-2.8215-.0187-.4856.0562-.0684 2.7081-1.2577 5.5778-1.8912 7.0309-4.9458.8836-2.6801 2.1217-.9405.3597-.1694-.8497-.7926-.9578.3968-1.52.7028-.4428.3163-.1035.1778-.1785.1871-.3267.1479-.2919.1095-.3963.0112-.182-.0206-.4258-.1282-.482-.9994-.0804-3.018 1.0604-3.2248 6.4427-8.5092 2.086-2.3742-.8828-3.3445.5677-2.9778.4579-1.485.2919-2.1075.0107-.612-.4338-3.7124-.59-1.2848-2.3029-3.9772-.6168-.4651-2.9134-3.513.2134-.9994-.142-4.214-2.8544-1.385-.3205-.4248-.0464-.102-1.6736-5.847-1.3264-6.5702 1.363-2.3358 3.9363-1.8398 1.953.0899 4.3603-.613 1.7405-1.1978 4.4085.1993.2214.0496.6319.3172.599.4062 2.6607 1.8005 1.7361 1.5833 1.1354.6822.3891.059-.9541-3.295-.042-.2957.25-.8712.1508.0196 1.8887.8497 4.3308.0496.8167-.4538 1.3175-.7318 2.5939-1.0593 5.1395-1.8408.5534-.1366.4427.2873.283.4754 1.2835 1.3457.0285.0196.6043-.2274 1.0988-.7608 1.0979-.8001 1.13-1.2362 2.3734-3.207.2356-.584.0188-.2077-.0929-1.2764-.174-.7216-4.0167-3.5813-2.1332-1.1969 1.3165-3.2744 1.3737-2.2964 5.0815-1.7097.4963-.0702.698-.6916.3445-.3743.3687-1.5254.141-.7608 1.6423-1.852 6.8524-4.4918 2.2654-1.4037 1.878-.0692.6177-.9293.199-.249.5383-.524 1.9074-.4463 2.3127.2657 1.1559.0796 4.4584.2489.7936-.9704.3641-.5437.7168-.0786.9113-.0992.9292-.5147.2383-.4651.3062-.6326.548-.495 3.3178-2.5717 3.755-2.4246 1.5157-.9115.2365-.028.2865-.0197 2.0655-1.0772 1.611-2.9796.1126-.6335-1.2318-.6925-.6043-.436.416-1.414.3391-.7534.5338-.9686.6998-.9114.2089.0973 4.1112 1.6938.1366.1479.1776.248.4722 1.048 1.388 4.1644 4.5298 2.8897 1.9717.3173 1.1845-.554.2365-.1582 1.4014-.3575 2.4867 1.5928.8534 1.574.623 2.3742-1.878 2.098-.0857.3566-.0375.4351.066.554.1402.1872 1.2175 1.3064-.939.6635-2.4395 5.4398-.0098.1085.1455.7225.274.9292.2553.4539 1.0988.8216.0562.029 2.0762.4258 1.7557 1.7116.1696 3.879-2.8456.9095-3.2972 1.1501-.8372.6626-.0384.1291h.2463l1.2541 2.1468.217.9404.9202.5035 1.6084.715 1.0238.4052.5614-.8713.3508-.494 2.027-1.6228.1518-.0103 1.363.1086.93.1376.9766.2676.2695.583 2.0262-1.3157 1.4255-.3453 3.5908-2.7195 1.5183-1.5244 1.2318-.9601.5391.0795 2.609.583 2.1806.832 2.6903.2966-.2178-.6729-.1036-.5343.0491-.3154.3017-.4557.382-.3743 1.9727-1.3766.1517-.059.5766.0403.325-.059.4721-.2377.2062-.1778.9015-.99.4249-.555.573-.7917-1.1095-.6045-1.08-.366-.3213-.0196-.2473-.1085-.6989-.6438-.4864-.9499-.0759-.218.9961-4.1644.4285-.9105-.2125-3.1172.1312-1.6432-1.3933-4.3225-1.944-1.574-4.654-3.6712-.5802-2.9974-.4418-1.0088.3669-.248.391.089 2.1145.5839.274.2873-.0277.1787.4436.4744 2.9955-.2386.873-.1282 1.3746-1.2278.0928-.3172.174-1.2268.1241-1.3167 2.7733-2.2366 2.751 1.4159 5.2707-2.8683 1.8967 1.5525.6507.6532.199.5325.042.2882-.241 1.2578.2115 7.1327.1616 1.3756.482.3668 1.6423.743 6.0062-.0589 4.563-1.0696.1695-.0683 2.585-3.5233 1.8985-2.6016.6739-1.3157 1.4112-1.9296 2.085.5137 2.4172 1.1492.1874.6335.0446.1984-1.6057 3.8303.8167 2.185-.0759.6532-.1687.454-1.3308 2.8607-.7185 1.4346-.1134.1076-.664.6438-.7026.4249-1.071.1581-.864.4455-.915.6344-.59.4249-2.0208 4.4722.4543 1.4542.1455.1189.2553.1085 1.3916.4062 1.794.7533 2.2752 1.5825-.0562.217-1.7753 4.6005-1.2952-.0197-2.0494-1.1286 1.7076 2.376 3.0812 2.4827 3.0919.6242.831.305.2035.0984.4713.5437.3026.9124-.2544 2.0774 1.2032 1.1483.8158 1.4842-.1232.1085-.448.2443-.4151.6232-.0295.2274-.0276 1.6826.2445 5.8076.5615 1.4346 5.0449 3.8293.7837.4548.9006-.1488.0562-.029.3026.0505.9488.5334.0563.0796.4204.771.3025 1.2176-.0383.5652-.1312.9498-.458 2.2666-.207.1375.9015-.5942.3026-.1872.5516-.1984.1901.0103.3954.1086 1.3202.5156.5016.306 1.5843 1.6601-.0187 3.1855-1.1077 2.8505-1.6147 5.2133-.7694 6.7678.4106.3163.2446.0683h.1883l1.4344-.0393.1231-.0197.4062-.2274.0562-.0196.524-.1769.2053-.0103.1553.0936z"/>
  <path d="M189.669 165.527l-.8159-2.0381-1.0524-2.83-.0107-1.8902v-1.1876l.0563-.6139 3.366-10.6251.4658-1.297.9203-2.4537 1.9583-2.6801.7498-.743 1.6147-.5045 1.146-.306.9864-.059-.0277.5054.0562.2873.1304.2873 1.3076 1.662 2.5198 1.938.864.6336.5721.277.6588.189 1.3897.1872 4.5281.3855 1.4594-.306.2597-.0983.0563-.0702.0098-.1375.2544-.0973 1.8592-.4146.4713.029 1.9155.4848-.432-.5933-.6846-1.8417-.3687-1.1482.7257-.3453.798-.2883.7515-.1375.9007-.03 2.8518.1993 3.241.0496 1.8485-.03 1.6905.2387 3.167 1.4337 1.6093 1.2175 2.1038 3.1864.4668.9002 1.6272 3.6702.6855 1.7322.6605 1.1978.523.7712.7677.7411 2.0869 1.6227.8774 1.0284.307.555.699 1.7612.3712.9592.0938.4351.0758 1.4945.3124 1.1791.3633.8216.3874.5727 2.02 1.7013 4.7842 3.2744 1.4718.5156 1.497.1694 2.4045.3453v2.6409l-.273 2.0775.7408.802.8533 2.0868.066.554 3.0446 3.2856.2259-.1085.7408-.585 1.146-1.3353.2259-.1479.2928.2087.665.861 1.8869 1.88 1.412 1.2362.3776-.029 2.5144-1.939.1607-.8497.5391-1.2184.4963-.6916 1.5718.9788.458.5437.3302.4773 1.571 1.8791 2.2698 2.245.3954.277.341.0795 2.8652.1301.3302-.0505.1651-.1189.216-.2377.5392-1.3943.1687-.2564.2213-.2386.3312-.1863 1.9824-1.1388.1687-.089.1312-.0112 1.4308.8217 5.2627 2.521 2.16 1.1679.7311.5437.8176.5053.5186.218 3.6917 1.138.432.0384.2875-.1376.3882-.2377.0741-.0496-.0464-.0393.59-.3855.6043-.2274.9381-.0974 3.5346-.0196.1794.0786.2045.1385.9113.7515.556.554 1.0926 1.3765.448.613.3116.5147.9774.9292.5935.3762 2.3734.9499.765-.454.9854-.6821 1.006-.6925.0374-.2564-.0375-.0898.3508-.7038 1.2353-1.0078 2.3038.6223 1.5995.4463 2.1788 5.205 2.0396 4.1475 1.0229 1.4542.6007.6345 2.5572 1.9886 1.0435.2667.798.1974.5034.0506.698.4061.1312.2162.0384.3369-.2643.8712-.057.1872-.4901.5147-.4865.1871 3.1767 1.3364.5508.2882.5096.3743.8355.9517.1901.2667.1607.3276.0285 1.355.026.3163.066.1881 1.0238 1.297 2.6652 2.8683.2553.1469.208.0393.4097-.0094 1.5147-.8506.9185-.743.2454-.1479.3446-.0973 1.8164-.5344.3633-.0402.4632.0402.3678.1872.3249.2667.632.743 1.0344 1.1473.5035.3753.5685.1787 3.915.9892.539.0196.0813.13-.0108.0796-2.2127 3.4036-.0294.0496-.6596-.0684-.5793-.336-.3401-.494-.0759-.0393-.7408.1478-.3026.6626-.1982.9508-.5159 2.9974.714 1.7508-.7684-.0103-1.0988.2677-.9943.5942-1.5728 1.5918-.798 1.0884-.1312.1488-5.0815 2.6015-1.0068.2882-2.8143-.2976-.2839-.059-.0928-.0692-.0375-.1179v-.2573l-.1124-.2948-.2848-.307-.6632-.7224-3.4775-.7121-8.2689-.3753-.3026.029-.2312.0983-.2927.3565-.1518.612-.0357.7028.084.4258-.0188.1479-.1803.3958-2.5439 2.9-5.4117.1489-2.3877.5137-1.8414.5447-.4525 2.0475-.0188.1872.1982 2.128-.1321.5643-.075.5334 2.3493 6.7275 2.3314 1.8005 3.3276 4.9756 2.4974 5.0768-.0098.0393-.1615 2.0475.3025 1.2568.3017.7122.6757 1.2071 1.1747 1.575 1.6271 1.9764-1.553-.0673-2.0003 1.1267-.5561 1.456.7631 1.722 4.039 5.4005 1.1568.7542.282.0496.2035.0983.6882.6232.5507.5643.0474.3669-.0375 1.3157-.0464.1675-.7221.6046-1.0051.4856-.1615.0506-.5026-.1301-1.0943 1.604.3722 3.8396.0491.0889 1.2782 1.4739 1.213 1.2764 1.279 1.8697.391.9012.0188.0786-.0286.059-.523.7318-.9667.2087-.623.1684-.8917.4352-.2919.1993-.2588.5044-.3687.9798-.1035.7018.0571.3959.1223.2882.1598.1769.3365.277.5935.3762.4285.0102.7837-.1094.1508.0196.0536.0693.0937.335-.0482 1.3644-.1455.2583-1.0613 1.66-1.6754 1.4347-1.812 1.355-.34 1.8014-.274 2.8898-.099-.0898-1.5228-.1591-3.0643.0973-.4641.0908-.8346.6232-.3204.1376-1.238.2667-1.6272.059-.8426-.2087h-.2285l-4.4915.059-.9114.187-1.7173.5438-.0937.8909.141.4145-.0375.2564-.0473.1376-1.5807 1.632-3.7552.4155 1.505 2.2263 3.331 2.6221-1.1362.3959-.6748 1.0313-.0187.1684.0187 1.5226.797.306.7204.3078.465.6036.0938.2667.066.613v.6925l-.0946.3275-.9113 1.4945-.1607.1188-.34.0197-.3446.1488-1.9155 1.661-.3204.4352-.1312.4744.0107 3.236.2365 2.6409.6266 1.3756.9203.5344 2.6902 4.1662.8355 2.0868-.1884.4932.075.8001.2 1.1969.1222.3668 1.1283 1.8997.2695.3846.0473.0506.3303.1085-.0937.1685-1.0328.1488-.2445-.0403-1.8593 5.174-.8265 1.6536-4.0747 1.0884-2.1734.2873-.5186-.2873-1.081-1.6845-.3445-.2358-.6605-.4351-.3722-.1778-1.3728-.613-.7524-.2564-.1687.0197-2.1137.5839-.6221 1.0883-.807 1.8099.3893.189.0357.089-.2062.7617-.1303.2947-1.3452 2.1187-.1285.0983-2.3127 1.9483-7.163 5.087-4.7423 1.008-5.9473 3.6224-2.7465 1.939-.4373.176-.1893.0589-.1794-.1273.3204-.218.0384-.1292-.0384-1.0977-.3025-.5549-1.1184-1.8988-.2544-.1581-2.7608.3846-2.8545.4258-.1615.0393-.3874.2564-3.9256 3.4625-.9667 1.4046 1.5835 2.6025 1.5361-.771.4579-.0197.0652.1375.0651 1.2755-.0839.4464-.2419 1.109-2.0717 1.1173-.1178-.2162-3.0009-1.5534-4.7244-2.0682-1.5433-.5156-.59-1.077-.4525-.7328.0651-.2957.4535-1.8698.1785-.407.9577-1.5816.4588-.0898 1.4388-.248 1.1452.0496.665-1.0687.0866-.1974-.6748-4.0277-.3115-1.4842-.4865-.5643-1.844-3.295-.0483-.1478.0099-.0908.1312-.2957L248.9214 364l1.3621-.249.1625-.335.524-.743.6506-.5643.5891.1778h.0946l.1036-.159.291-.7815-.1607-.3761-.1616-.1778-.73-.4932-.6231-.5437-1.2702-1.4543-.0642-.0992-3.0429-1.632-.8658.0197-2.8536-.0506-.622-.0889-.6472-.4155-.275-.3846-.0374-.306.1892-.772.216-.5044-.0286-.3566-.1312-.2087-.2436-.0505-2.9215.6738-.1232-.0796-.2052.0113-.524.1768-.0571.0197-.4061.2274-.1223.0196-1.4335.0393h-.1901l-.2437-.0683-.4106-.3172.7676-6.7668 1.6156-5.2125 1.1095-2.8504.0187-3.1855-1.5852-1.6601-.4998-.307-1.3202-.5156-.3972-.1198-.1883-.0093-.5525.2087-.3017.1871-.9015.5952.207-.1385.457-2.2665.1321-.9499.0375-.5643-.3017-1.2174-.4204-.7711-.0562-.0796-.9488-.5343-.3026-.0496-.0562.029-.9015.1478-.7784-.4548-5.0502-3.8283-.5615-1.4346-.2454-5.8086.0285-1.6816.0286-.2274.415-.6232.4481-.248.1232-.1086-.8167-1.4842-1.2032-1.1482.2553-2.0775-.3026-.9115-.4713-.5437-.2035-.0982-.832-.307-3.09-.6242-3.0821-2.4817-1.7093-2.375 2.0502 1.1285 1.297.0197 1.7735-4.6005.0563-.2161-2.2743-1.5825-1.7942-.7533-1.3915-.4052-.2553-.1086-.1463-.1188-.4526-1.4561 2.02-4.4704.5935-.4258.9113-.6326.865-.4473 1.071-.1581.7007-.4352.6713-.6345.0981-.13.7177-1.443 1.3308-2.8505.1696-.4539.075-.6522-.8158-2.187 1.6093-3.8284-.0482-.1993-.1875-.6335-2.417-1.1492-2.0851-.5128-1.4112 1.9296-.6757 1.3148-1.8976 2.6025-2.585 3.5214-.1687.0693-4.5629 1.0696-6.007.059-1.6415-.743-.482-.367-.1553-1.3746-.2178-7.1355.2418-1.2559-.0419-.2882-.2-.5325-.6506-.6532-1.8968-1.5534-5.2707 2.8692-2.751-1.415-2.775 2.2366-.1223 1.3148-.175 1.2278-.0927.3172-1.3746 1.2278-.873.1291-2.9964.2377-.4436-.4754.0285-.1768-.2749-.2882-2.1127-.584-.391-.0889-.3686.248.4427 1.0079.581 2.9983 4.6531 3.6711 1.944 1.5731 1.3934 4.3234-.132 1.6433.2123 3.1153-.4293.9124-.9961 4.1644.0768.217.4873.9508.698.6439.249.1085.3205.0197 1.08.3678 1.1086.6035-.5721.7917-.425.5559-.9023.9891-.2062.177-.4713.2385-.3249.059-.5766-.0402-.1517.059-1.9727 1.3755-.382.3753-.3035.4548-.0473.3172.1036.5335.2178.6728-2.692-.2966-2.1789-.831-2.609-.5943-.5391-.0692-1.2318.9601-1.5192 1.5226-3.59 2.7203-1.4263.3463-2.02 1.3157-.2749-.583-.9773-.2667-.9301-.1385-1.362-.1085-.1518.0103-2.028 1.6226-.3508.4942-.5605.8712-1.0238-.407-1.6093-.7132-.9194-.5044-.2178-.9405-1.254-2.1467h-.2455l.0383-.1291.8364-.6626 3.2972-1.1492 2.8456-.9105-.1687-3.8789-1.7558-1.721-2.0761-.4154-.0562-.029-1.0988-.8226-.2553-.4539-.2687-.9302-.1508-.7215.0098-.1085 2.4394-5.4399.939-.6625-1.2165-1.3064-.1438-.1872-.0633-.554.0375-.4351.0848-.3565 1.878-2.0981-.6222-2.3742-.8533-1.574-2.4867-1.5918-1.4023.3556-.2356.1582-1.1845.554-1.9717-.3163-4.5308-2.8889-1.387-4.1652-.4722-1.0481-.1785-.248-.1357-.1488-4.1113-1.692-.2115-.0991-.6971.9124-.5347.9694-.3392.7515-.415 1.4159.6025.4351 1.2327.6925-.1134.6336-1.6085 2.9786-2.0663 1.079-.2874.0197-.2374.029-1.5138.9105-3.7552 2.4247-3.3186 2.5716-.5472.4866-.3061.6429-.2383.466-.9292.5138-.9113.0982-.7186.0796-.3624.5437-.789.9704-4.4736-.3462-1.156-.0786-2.3117-.2686-1.9075.4454-.5391.5269-.1982.247-.6185.9312-1.878.0683-1.2434-1.474-.541-1.5337-.132-.7215-.1303-.7917.0473-.4557 1.2318-2.9291.589-1.3747.9489-1.3363.0937-1.9998-.4427-1.751-3.6337-7.3198-.076-.1394-.2266-.2078-.5606.3668-.4918.9798-.4579 1.0294-.897.6345-.2883.1085-9.257-2.7428-1.1899-.4642-3.0008-2.2945.0383-.277.3196-1.8305.2178-1.1389.7016-2.7016.3686-3.8284-.3874-3.7694 1.886-1.6218.9444-.3163 1.4255-.2489.3882.0103 5.833.3668 4.7281.831 1.1363.4071.1615.2274.0188.059.3258.1974 1.5629.4352.0651-.0197.217-.2274.5337-.771.7408-6.7388.357-3.8471.4919-5.394.9774-3.76 1.878-2.6708 3.6801-5.847 1.2327-3.9378.5016-1.661.1973-1.0706-.4695-6.4983.2811-3.2257-1.0336-.8796-.1232-.7824-.0374-.7917.7694-2.216.7122-1.326.7837-1.9296.3455-5.117.9943-4.4413.6043-1.9783.075-.2368.0865-.0907.4758-.177h2.567l-.3186-.1281-2.0217-.6045-1.1077-.2686-.7685-.1282-2.7661-.2574-6.2383-.2077-1.812-.2667-.357-.2274-.25-.336-.6613-1.2858-.1678-.4754.0758-.2657.8757-1.5834.1187-2.4434 1.4013-11.9324 2.9965 1.4242.872 1.297 1.7138-1.8013.9488-1.0687-.8917-1.6723-.6052-.3762-1.471-1.0285-.4534-.6138.2544-.8404 4.096-4.4526 1.0819-1.1276 2.4251-1.851.9855-.7215 2.5161-.9302 1.2033-.2873 1.0978-.1376 1.4773-.1375 6.6631.5736.316.1189.5391.3275.1232.1769.457.3275.6436.336.4096.0102 1.5719-.307 3.5204-1.1968 3.7613-1.1174.3535-.0692.539-.0786.3946.0402.0107.1479.5043.1376 1.0238.028 1.098-.1085 2.817-.89 5.525-.5147 2.8456.3285 2.5474.424.8739.466.2177.277-.0383.4463-.0759.2162-.4008.5942-.0857.6822.308 2.1262.1972.8113.4731 1.2961 2.5707.3743.2543.3276.4642.7318.5141 1.048 2.9955 7.3723v.0974l-.0473.3069-.0937.336-.2312.8319-.2544.5437-.8068.4351-.8016.3163-1.9155.7318-.3624.0983-.8203-.028-.8827-.7225.066 1.9306.0928.8712.1134.495.2178.6233.2785.6335.548.7608.7123.8114.3508-.1479.7408-.5156.1679-.0393.7988-.029.6222.1871.8925 1.1978 1.08 1.6424.5713.9498.0482.0983-.0187.2283.1883.395.1232.1375.5793.2573.963.2368.7017.0898.3302-.0402.5534-.2948.4517-.3565.1562-.1769.606-.714.5124-.7608.4168-.7702.6543-1.6236.2927-.7215.1134-.7412.208-3.483-.067-1.4552-.0642-.2087-.2178-.465-.1321-.1582-.391-.2377-1.4013.5736-.491.1479-1.9065-.3753.4329-3.8986.2267-1.5534.067-.2863.3722-.833.2927-.435.8346-.8713.8372-.6916 1.1729-.4547 1.072.1085 1.2487.861.3892.5839.664 1.3054.8168 1.2765.9961.5746 3.3267 1.5721.1892.0412.358-.0496.4105-.0112 1.2603.2274.6748.1188 1.713 1.109.1133.1281.0856.248.1464.9003-.0187.0692-.166.1582-.3115.2377.3016.4463 1.2167 1.7004v.1694l-.0527.188-.3294.4942.1509.217.2874.1882 1.6272.1862.1606-.0103 2.286-2.5332.0847-.4847-.8015-3.631.9577-4.6519-.0562-.0889-1.5022-.247-4.8137-.2574-.8623.0234zm24.6478 46.6106l-.2374-.5325-1.2318-1.5637-.6096-.4548-.2821-.0103-1.0229.6822-4.2005-.1291-3.3642-1.7912-3.7747-1.938-5.7813-.7215-6.7069-3.792-.2445-.8094-.0099-.6345-.0187.6822.199 1.2278.3535.8001.2839.525.6542 1.0088 1.3826 1.1679 2.1235 1.0696.714.3163.8105.1198.6855.1881.3187.2873.2285.4745 1.405 3.9275.132 1.2362.8167.584 1.7495 1.9783.44.6335.0563.5933.0562 2.4434.4338.4763.4865.4352.274.0692.9399-.336.3294-.1384 1.204.0112 4.7718 1.7322 2.7742 1.1379 2.9018-2.6015.0482-1.8417-.341-4.462-.7025-1.149.0759-.119.1232-.0683.8631-.3359.8926-.379zm-59.7515-63.5683l-.9202-1.1782-.0946-.1076v-.1694l.3882-.3565.3401-.1479 1.1934-.0505.6659.029.6078.0908 1.5727.3659.5526.1684.1981.1086 1.0979.802.049.4454-.1516.0393-1.4532-.5643-3.431-.9199-.1322.0094-.0848.0692-.2267.4062-.1714.9601zm8.2823 2.9675l-.0928-.0103-.2928-.1376-.2276-.1572-.1883-.2274-.0857-.2171-.383-1.5731.0099-.3584.6471-.8095.3205.4146.3668 1.9783-.0187.9994-.0554.0983zm-18.4283-1.2372l-.4722-.0889-.1562-.0973-.1874-.3771.0098-.366.2437-.5259.5427-.7121.2544-.2564.2356-.1582.5418-.1778.9408-.0383 1.3442.0383 2.1235.1975.3882.0599 1.2086.3453.35.3855.0472.1376-.0473.0402-3.2793.6439-3.2982-.218-.7899 1.1678zm-11.3207 2.6512l-.199-.0393-.3204-.277-.1312-.8395.0187-.6822.066-.2676.641-.918.1758-.1582.557-.2976.3864-.0692 3.0268-.0197 2.3921.1282.8685.1095.2214.0683.3579.1376.3204.1984.1143.1778.0276.4548-.0187.0973-.0375.0103-.7078.0505-.0098-.0505.1124-.1188-.0107-.0496-.0562-.0197-1.8959-.1282h-.2088l-1.4157.1282-2.077.2096-.2535.089-1.944 2.0755zm-2.0672.1197l-1.2317-.0505-1.4389-.1769-1.2416-.2957-.2883-.4548.0098-.0973.0768-.0908 1.312-.5643.226-.0496h.2927l1.8592.4258.1241.0683.2812 1.0472.0384.1488-.0197.0898zm-15.5345 1.5039l-.5704-.5044-.2383-.3556-.0482-.1788.1142-.2161.274-.2087.3348-.176 1.2603-.5942.8274-.2274.49-.0692 6.3794.029.9568.03.4722.129.2231.118.1598.4754-.0384.1375-.789.2957-.5347.1788-6.8416.89-1.7727.158-.6587.089zm-13.8601 2.5126l-.524-.0412-.1026-.0093-.3035-.1076-.448-.307-.0563-.159.0562-.1292.307-.089 1.8754-.188 6.1812-.643h2.7893l.7792.177.1125.1478.0473.1376-.009.2377-.1517.219-.0526-.1479-.076-.0393-1.3352-.0899-.557-.0196-.6659.0196-3.157.1189-4.171.6729-.5017.159-.0366.0805zm-8.6492 9.8653l-.4641-1.0088-.274-.1881-.466.03-.3873.1468-.0563.1301v.277l.0928.2873.1134.089-.0098.0392-.1036.03-.5792-.0983-2.3225-1.9371-.3955-.6345-.1508-.801.074-.3865.1411-.2368.0857-.0898.2553-.0983 4.6771-1.4832.2437-.0113.491.0702.59.2658 1.5727 1.2362.465.5156.0482.1479-4.7138 1.3943 1.1274 1.0584.5998.7627-.0482.088-.4945.3967-.1116.0085z"/>
  <path d="M319.1661 132.393l4.0693-2.9085 2.6376-1.6535.9015-.4062.3874-.0983 1.945-.4931.5846-.0506 4.4076-.217.25.158.3195.3473 3.0053 3.541-.1883 1.7725.0276.5137.3017.7524.5284.5156.5427.2958.491.1693.4864-.0505.1303-.059 1.0622-.7608.4052-.3163.1554-.248 1.4495-.3555 2.1047.9573 1.1184.5343-.0562.8394.1036.218.5426.4455 1.1827.7318.698.3753 1.3202-2.3845.3115-.9404.5114-5.234.8033-1.7116.116-.1778.3535-.336 1.6103-.9685.7604-.2676.292-.1984.4257-.4137.1553-.2274 2.4546-3.9968.0741-1.0883-.0473-.2358-.5802-.9817-.1874-.2162h-.2178l-.2642.248-1.1658 1.2287-.5132.9574-.6712.9704-.6748.8796-1.5397 1.9596-.0562.029-.0652-.059-.1303-.8206-.0188-.4941.1027-.4754.5721-1.1567 1.5522-2.2365 6.7533-5.8292.1884-.059.481-.0495.4946-.03 3.0356-.1085.1509.0196.557.2677.6542.2077.8533.2087 1.0346.1376.9006.03.7935-.059.4963-.1301 1.138-.3743 6.2365-2.6016 3.6953.582 2.6278.3585 1.337-3.178 1.7647-3.5523.283-.4249.8908-.8506 1.4397-1.0593 3.1276-2.0476 1.0238-.6541.4374-.336.4722-.4052.5632-.6045.4142-.5343.5185-.8797 3.757-7.4106 2.443-5.0562 1.9726-3.5514 1.5673 1.3457.756.335.4115.1095 3.6364.4941 3.1848.3856 6.4757-.1778 3.8595-.2873 1.1738-.1479 1.6048-.0393 1.2041.1376.1045.059.0562.1085.0277.1881-.0643.0973-2.285 1.603-.3535.2087-1.6763.454-3.7926.2966-2.6063.0889-.9194-.0693-.1124-.0374-.199-.1788-.4008-.6438-.2268-.6335-.2374-.1282h-.0482l-1.3773.0683-2.9071.7814-2.7608 1.8201-7.9832 3.048-.831.7214-2.4502 6.0341-.2731 1.7518.0276 2.3452.0375.0683 1.9905 1.4243.9488.3668 1.0524.0683.8908-.1684.3213-.1881.0098-.1872-.265-.2265-.3116-.1693-1.1041-.2377h-.4169l-.1597-.0693-.524-1.077-.066-.8011.4007-.9302 2.842-3.3942 4.172-3.3726 5.3367-2.711 4.5174.9591 4.1809 1.9999 1.7504-.335.3356-.2284 1.213-1.1276.1883-.1975.1893-.3865.075-.4248.0089-.9003.5248-1.4449.0482-.1385 1.2425-1.1482.2169-.1778 3.3552-1.3251 1.9816.2087 3.6712 5.6195-.7034 1.6835.1508.7412 1.538 5.2236 2.2404 2.6324 1.5415-.9105.6185-.3154h.1509l5.4688 2.7391.1313.1395.3847.6822 1.3995 3.0778.2267.554.2.3669.1606.1085.1652-.0112.2445.5652 1.9628-.0196 1.9825.7916.0187.0899-1.5093 1.3943.1222.6336.1696.188.2687.0281.4641-.3163.2071-.2161.2044-.0197 1.0979.7215.0857.0683.1312.2668.5855 1.326.009.861.0848.2676 1.0059 1.721.3258.2966.3285.1581 1.3272.248.1687-.0496.2214-.1488.0286-.059-.0652-.2264-.391-.554-.4159-.6139-.59-1.4636-.0098-.1872.8265-.714.291-.1076 7.8815-2.7503 3.1562-.9985 3.4775 3.6309.5624.6635.49.8225.1901.612.0366.335.0098 3.9192 2.958 6.3804 3.4981 3.848.664.9798.3785.6438.1134.3163-.0286.2265-.3391.5558-.2946.3266-.0928.059-.1616-.0505-.3445.0112-.3401.1581-.3115.2873-.7221.8217-1.6156 1.9492-1.297 1.9886.0742.366.515 1.079.1794.1758 5.1948 3.3652 1.8307 1.4234 1.4005 1.3457.34.1581 6.0598 2.2656 1.1934.407.9292.147 3.0062.0702.3026-.0197.1884-.13.9577-.889.7507-.8807.3588-.5727.1223-.1376.3838-.0196.6043.1479.3356.1478.7453.6822.373 1.0706.957 5.3425 1.7681 5.9667.3259 3.542-.3535 2.6511-.0098.1077.2249.9198.6373 1.8305.74 1.9886.1526.1188 1.4486 2.1262.3258 2.0784 1.1078 4.6107 2.2751 6.8772.2553.6523-.3963-.0899-.2785.0197-4.4825 1.9783-.142.8721-.5507 1.6808-1.8075 2.653-.722.248-2.2369.3743-5.2047-.1863-.9872-.1188.1616-1.1398.0928-.4454.4285-.7515 1.4022-1.7808.6543-.6233.9078-.9994.9577-1.2053.7025-.9808.9024-1.5422.3784-.9199.1214-.4463.4767-1.8389.0187-.496-.216-2.6605-.3749-.6438-.6507-.4539-5.6536-.3668-.6436 1.3064-3.4623.1179-2.3975-.3968-3.0339.5652-.5186.2377-1.4442-.613-1.3175-2.9477-.863-3.0975-4.4657-5.422-.4632.1188-.325.5933-.066.2966-.2258 1.8117.0107.306.1401 1.297 1.221 1.1567-2.4527 2.2768-2.3975.1881-1.5576 1.2961-.8497.8001-5.8795 5.9162-.1883.466-1.0542 2.6512-.4204 1.5038.2223 1.2166.2642 1.6919.0107.1085-.0571.0899-1.9057 2.6913-4.2282 4.6594-.6275.2873-.3195-.0973-.9676-1.5244-.1142-.832-.0563-.189-.349-.5035-.1892-.1076-3.1392-.0514-.9765.4875-1.6236 1.473-.3196.4753-.1687.7028-.0937 1.1483.0098.4744-.1142.6345-.4374.8114-1.3264-.2087-.1615-.1881-.7293-1.6433-.208-.5933-.273-.5334-1.7299.2367-.1607.03-2.019 1.0303-.3883.3743-6.2579 7.1552-.2686.1488-.142.0187-1.8494-.831-.1312-.1188-.0098-.059.2418-.3865.831-.6822.9292-.584-.0187-.158-.1901-.4745-.0348-.0393-.6124-.1881-6.5016.188-1.5905.5428-.075.059-.0188.1385-1.0318.4145-.7417.2883-1.0435-.118-.3383-.6438-2.1993-2.3947-3.025-2.958-.6944-.1302-6.8515-.6728-1.5763.3565.0375.4867-.1785.1984-2.9027.3659-2.211-2.6128-.4534-1.3354-.873-.7421-1.6601-.9405-.6596-.3285-.5418-.1581-.4928-.3453-1.7717-.5643-3.4508-2.77-.2972.0197-4.9351 1.0593-1.3246.5053-1.52-.217-1.3729-.2677-1.8503 2.771.141 1.6619-.3293.465-3.3455 2.5024-.3445.2274-4.4745 1.7116-2.8652.2162.9854 1.7415.1187.3266-.0232.1086-.1892.217-4.9333 1.1567-.5624.0983-.6221-1.3654-1.521-.9002-.9113-.0683-2.4439.0393-.5052.4061-3.4579 3.3044.6105 3.8293-.573 2.3741-.2928.919-.7667.5652-1.3737-.0496-1.4585-.277-.5739-.277-.0268-.2386-.7131-.555-3.0152.3772-2.4635 2.0372-5.0164-.307-.1606-.3265-.1875-.2667-.8372-.9508-.508-.3753-.5515-.2873-3.1767-1.3363.4846-.1862.4936-.5156.0554-.1881.265-.8797-.0374-.3275-.1303-.2171-.698-.4062-.5052-.0496-.798-.1974-1.0417-.2667-2.559-1.9895-.5998-.6345-1.0238-1.4552-2.0423-4.1456-2.176-5.205-1.5987-.4463-2.3038-.6233-1.2424 1.0097-.3446.702.0375.0898-.0375.2564-1.005.6924-.9854.6823-.7632.4547-2.3743-.9507-.5935-.3753-.9774-.9292-.3107-.5157-.4498-.612-1.0925-1.3756-.5561-.555-.9113-.7523-.2071-.1385-.1723-.0786-3.5346.0196-.94.0973-.6051.2274-.59.3856 1.5852-7.579.548-1.196.8918-.5456.4525.03.5784.2563 1.2336.278 3.4221-2.7195.2687-.2976.897-1.0303 1.9155-2.3638 5.8527-8.1312.357-2.2768 1.2515-1.8193-.6329-3.542-1.1853-1.355-.7971-.4062-1.006-.218-.1508.0402-.1982.1189-.0285.1694-.3535.1076-1.1184.0599-.1981-.0908-1.364-.8712-3.398-3.4634.374-2.9188.1607-1.4037-.0572-.4754-.3016-.8404-.1741-.3565-.8872-2.3152-.0188-1.6929 1.271-2.127 4.663-3.4335 2.3394.1778.8435-1.9998-.8855-2.8926zm125.8876-72.7326l-.5195.335-1.5754 1.3457-1.147 1.384-.198.3276-2.6716 6.9755-.0652.188-.0812.8217.1187.0196.4258-.1478.207-.1769 2.6653-2.6923.5847-1.5815-.141-.5652-.2375-.8329-.0276-.1291.0482-.1076 1.4754-2.1973.9292-.277.0955.029.1785.4061.1348 1.139-.0188.2872-.0981.554-.2928.9405-.6587 1.2362-.25.3575-.2169.5324-.3204 1.909.0384.9696 2.501-1.2456 1.8494-1.1173 6.0973 2.6324.141.0402.1027-.0103 1.6798-.218 1.6576-.7028.1017 4.8493-.1223 2.6324-.132.0899-.3294.0112-1.5103.0393-2.3877-.801-.6167-.3173-3.5632-2.1766-.2062-.2471.0187-.307.2919-2.929-2.7893.1095-2.9724.1291-1.005.2368-2.9402.8806-.798.4856.5427 2.493.4044.8207 1.8039-.1076 1.4112.1385 2.2368 2.1252-.765 1.5347-.2106.1292-2.0012.7327-1.0318.1975-1.1372.2377-1.0327 2.4134.0098.5147.0384.13.3053.177 4.7396 1.0883.5998.1291-1.2889.832-5.2984 2.6904-.1374.2087-.1223.3762-.3963 2.2946.0384.9788 1.496 4.651.108.2283 13.8404 4.8662 1.1371-.8993.2366-.307.1232-.248.0276-.1179-.066-.5549-.3678-.8796-.7605-.9302-.0857-.0403h-.5034l-.141.1881-.0768.1582.0491.2274-.0383.1198-.5767.524-.7024.3678-.3312.029-.324-.3968-.0285-1.1267 3.7328-4.1494 2.9401-2.959.9408-.7308.2919-.1189 8.9669-1.1492.3722.0693 1.2416 2.1467.0375.1095.0098.4352-.1678.4061-.0652.1189-.715.5652-.0562.0383-.8426.4558-.0116 1.443 1.9093-.525.798-1.661 1.08-2.3349-.6177-1.5534-1.5808-2.6904-1.1282-.9705-1.1425-.8403-.1035.13-.1973.1077-.5766.0692-1.1077.059-.175-.0197-.2535-.1684-.3686-.3463-.9015-1.1173-.9854-1.9493-.2276-.612-.283-1.0481-.0981-1.3663.0981-.526.1696-.3162.142-.2087.0838-.1086 1.4121-1.6713 1.878-1.6536.4999-.2667.1847-.0393.5463-.4155.5043-1.0883.1312-.9892-.2169-1.9783-.3535-.4763-.614-.5933-1.2747-.8796-.2267-.0796h-.4043l-1.5852.1591-.3776.0393-2.0289.4464-.282.1282-1.8227.6045-2.576.4923-.573-.0403-.9194-.2358-.3499-.13-.4284-.2967-.2642-.1872-.7444-.7917-.656-.9105-.4678-1.0191-.3776-1.4243-.1223-.802.0384-.3041.3107-.9705.3079-.4463.1517-.1077.4794-.2395.3543-.0973.3499-.029.2535-.119.3677-.3359.2214-.4463.3133-1.2765-.0107-.059-.324-.4753-.2196-.248-2.7188.2564-4.0122 1.1885-.7373.0159zm-11.127 20.7683l.1125.2948h.0866l.1616-.2358.1606-.6532.9765-5.7.7043-3.6412 2.0377-1.078-2.6572-.9902-1.6182 9.7165-.1232.9798-.0098.5044.0651.3163.1036.4866zm4.3309 1.4037l3.7944-2.1963.4641-.3856.1036-.1375-.2553-.861-.2267-.2966-1.1667-.5643-.2115-.0983-.614-.0786-.599.1582-.5855.4145-.7507 1.049-.141.335-.9489 2.3246-.0267.6242.0553.1479.124.059.9846-.4942zm-8.5394.8909l-.1312-.0393-.1901.0112-.1651.059-.208.1375-.1026.1189.0107.1291.2427.247.2223.2088.5945-.0393 2.8821-1.0697.5963-.5446.316-.3556-.4481-.5147-.199.0496-2.5297.9994-.3249.395-.4641.5839-.1018-.3762zm45.721 24.3197l-.4535-.5147-.2169-.1582-.4588-.1179-.2919.0281-.589.1694-.6508.3659-.4293.3575-.1312.1974-.1508.336.0383 1.2558.3124.992.1884.247 1.7735 2.0784.1902.1292.4579 4.6996 3.307 5.3912.0928.1488.1616.0992.1696.0271 3.3945-1.721.0428-.028.3561-1.0313-.0187-.1085-1.1175-1.751-.3312-1.5421-.0098-.0496.0652-.0983 3.1053.2864 1.3781 1.2474 2.4065 2.8102.2258.307.1687.3565.373 1.0369-.065 4.8184-3.234-.5951-.6631-1.4328-.5293-1.852-.1366-.1281-.4061-.1881-.664-.089-1.6844.4642-.125.0496-.1133.0899-.325.713-.1508 1.2756.0277.2274.1616.3855.2695.2377 1.0979 1.3944.3213.801.7025 2.158.0277.4538-.383 1.049-.291.7712-.207.188-.9488.6037-1.1193.6335-1.1461.6045-.374.0796-.357-.0197-.2375-.0393-.6757 1.445.666.6728 1.063.4847 1.2478.3285.93-.0992 2.3226-.4258 2.4537-.7019.2874-.1282 3.7132-1.9989 6.6917-.7318.2874.0103.1883.0393 1.2041-5.6382-3.4864-2.9983-3.822-3.6824-4.587-4.5209-.9783-.6045-1.3166-.7121-.3249-.1591-.3124-.0786-.9113-.1582-.9015-.336-1.638-.9704-.4757-.2957-.9854-.8712-.9792-1.049-.6988-.8395-.216-.336-1.5523-3.745zm-125.0888 22.4995l.631-2.0578.1946-1.1286-.049-.4922-.0688-.1778-.2383-.1189-.8355-.2087-.9434.1488-.308.089-.4445.188-2.094 1.1558-1.3165 1.0593-.233.5559.049.9685.1277.612.217.495.2061.2874.3205.277.3249.0692 3.157.613 1.3032-2.3349zM266.0502 380.4159l-.1795.8516.1313.9395.515 2.0288 1.287 3.2239 1.081 1.4243 3.0428 1.167 1.6861.7523.8168 2.711 4.0684 2.1655 1.4763.526.7301.465.5195.4454 1.171 1.2072 1.1087.277.2544.5737-.291.742-.5427.4146-.3312.1694-.2972.2864-.3776 1.2474.0286.2377.3204.5035.183-.0281.0375 1.661-.0375.743-.1651.2078h-.5097l-.3311-.6522.0098-.0403-.2473-.4145-.3213-1.2372-.939-1.0088-2.3314.5952-.4061.5325.0955.2498 1.2032 2.6802.5462 1.1473.1848 4.038 1.6084.611.7989.5653.1785.1993.4543.4932.466.8796-.1518.4651-.524 1.078.1313.1779-.491.613-.2436.1487-.4597.1862-.1607-.0393-.216.1666-1.528.218-.3696.0506-.415-.1273-.2598-.2115-.2642-.3331-1.147-.6542-2.0476-.2957-1.279-.1385-.7685.0983-.2366.1189-.132.0973-.1304.2788-.5427 1.1876 1.3067 4.504.864 5.5287.0188.743-1.4495 3.8387-.6364 1.08-1.2318.0383-1.4487-.1974-.4106.306-.9774.8329-.1231.3256-.3205 1.6807.0098.5269.3401.6634.0857.9115.0098.4352-.1142.1366-.2357.089-1.2032.3967.8257 1.0593.1508 1.3757v.306l-.4266 1.1585-1.1122 2.5033-1.2425 1.603-.6034.9115-.2695.4145-.067 2.4808.0563.8713 2.9205.5446.9676.1703.8256-.1768.4811-1.168-1.097-1.4251-.0384-.5737.2116-.2948 2.1707-.89.433-.1188 1.9253.1189 1.1371.1188.2642.2274.6927 1.2671.6605 1.9296-1.6094 1.416-.1883.216-.3543.5943-.1509.3472.1794 9.083.0384.713-.275 1.5431-.4168 1.225-.8256 1.299-3.1464 3.5494-1.4219.8628-1.08.918-1.0425.6729-1.0711.465-1.3773.1714-2.0012-.8741-.6801-.5652-3.1758.9713-.3115 1.4833-.5052 2.0101-.141.306-.6097.5914.6177.9415.2267.5259.0759 1.5328-.076 1.0388-.1035.3677-.3873.7524-.6847.7122-1.4388 1.3662-.6471.264-.0857.0327h-.6105l-1.5237.5718-.1133.1572-.292.5063-.6176 1.1978-.8363 2.2235-.067.3958-.1124.0992-1.4202.0992-.6926.0178-2.7242-.728-.972-.3463-1.0604 2.362-.316 3.1948.598 3.8022.2179 1.1463.3882.9705v.7523l-.3579 1.11-4.5584.86-1.2041.1384h-.174l-.482-.4061-1.6585-4.0362-.0955-.1188-.274-.0805-8.6545-1.7705-12.0232 3.4634-.1133.088-.4642.5717-.6551 1.1099-.416 2.3236-.5784 1.2287 1.156 1.0481.2695-.0599.5186.0197.4579.1488.1231.0599.2821.2564.125.2554.3195 3.6413-1.4112.83.3124.4483.0375.2068.3347 2.8308.1321 2.6708.0857 1.9296.3401 2.8514.0928.2068.6373.89-.8167-.0974-.1892.0506.0277.5923.1035 1.3457.0866.3669.2365.2657 3.8872 4.0764.3508.0196.6918.1582.208.0674.1606.1188 1.0524 4.9673-1.4478 4.037-.4427.2274-1.213 3.484-.7302 6.5198.798 1.5328-.1553 1.5357.0794.0786-.3445.9199-.1312.2077-.482.4053 1.4397.8122.3106.2387.5043 1.2951-.0098.395-.2588.3976-.822.2274-1.3202-1.6123-1.0211-.2509-5.0342 1.6939-.2178.1076-.93.6934-1.4157 1.7116-.3392.6635-.1803.5951.6614.6336.4954.7889-5.784 5.5409-.2276.1712-.1124.03-1.6647-.0805-.4293-.088-.5285-.6045-.2695-.8123.3338-.7992 1.5727-3.5045 2.0574-.7515 2.0753-1.9699-.1785-1.166.141-.6036h-2.1324l-5.8-1.1978-.4106-.147-2.0583-.96-1.297-.9293-1.67-7.1449.324-.1871.0858.1768.3882.1488.0929-.1076.4588-.9311-.1134-.4455-.864-.2087-3.5115.92-1.5254.4547-.2642.5653.0384.7617.1883.366.5623-.09.8007 3.7994v.4745l-.0928.5044-.5954 1.021-1.546 1.2745-.8372.0403-.2633-.0786-.4061-.1685-.8159-.6438-.5632-.801-.3383-1.109-1.8217-2.4546-1.2979-1.1866-.4909-.4361-.8925-.1076-.2535.0196-.2794.0684-.9292.4753-.142.0777-.4516-1.109-1.421-2.2365-.448-.86-1.4318-4.8175-.0937-.4267.1509-.9096.066-.2265.1794-.3472.1036-.1188.5614-.4549.4918-.3275.4285-.2152.623-.2499 1.3442-.306.3454-.1488.3678-.2161.4249-.3547.3623-.5652.076-.177.132-.2778.5525-.9527-.3088-2.1851-2.4921-2.7297-.466-.9209-.8952-1.3457-.2704-.465-1.9914-5.2733-.1687-.744v-.365l.1035-.4931.1187-.3275.3116-.5344.2749-.6045.0562-.3144.0188-.4651-.1134-.5138-.5284-1.7808-.0286-.89-.4293-1.1005-.416-.7608-.3338-.525-.6417-.7917-1.138-1.0883-.6927-1.0874-.3955-.6046-.6167-.7046-1.0345-1.036-.5186-.2274-1.6522-.3668-.939-.1366-.8167.059-2.2556.7608-3.6953 1.7714-6.2668 2.5155-.2642.0786-1.7745.2948-2.9768.0982-.3142-.0383-.2436-.0805-.4205-.306-4.8315-7.0831-.6096-1.8108.8434-.189 1.779-1.0482 3.7078-3.2453.3418.1385 2.0655.6026.2686-.3752.341-2.799-.1133-.336-.8917-.8403-.7034-.5653-.4641-.2947-.325-.4876-.0562-1.2371.067-.117 1.3576-1.879.5204-.3969.307-.1684 3.8756-1.7603 1.6415 1.0079.8917.2255.265-.0084 1.496-1.7406-.0856-.159-.3303-.248-1.4915-1.5236-.207-.4463.8827-1.2175.7962-.2564.5953.0786 1.8709.8 1.7834-1.076-.0197-1.8024-.0642-.3753-.6552-2.0953-.066-.16-.1786-.3752-2.3689-4.5424-4.7128-3.295-.4552-.0103.2561-.7215 1.5674-4.6285-.656-.9124-.4767-1.2081-.009-.306.4205-2.276.4713-.9975 2.1324-2.6633.3356-.1291.5391-.1572.274.028 1.08.4539.4481.9807.9114.3257.9577.1984.6801-.0974.1688-.407.6935-1.7313.2437-.6223.656-1.6854.341-1.1089-.0098-.5521-1.0435-.6251-.3204-.1966-.1143-.2386-.8256-4.5508.0098-.8703.0563-.5156.1312-.3856.789-.9405.6543-.9292 1.7878-3.483.05-.3267-.1624-.89-.7177-1.05-.6846-1.4167-.3499-.7692-.373-.9415 8.466-8.6665.1786-.159.1732-.029.8693.029.1652.059 3.6489 2.0175.1597.0496.4865-.1085.1044-.117 1.0042-1.1286 3.8274-6.0565.5338-2.4228.049-.1198.3562-.218.0857-.0478.5337-.0103.141.058-.2356-.3462-.0107-.2246.0759-.1488.764-.8712 1.2836-1.4552.8827-.8123.3508-.3434.4249-.6832-.3294-.8207-.6007-1.3662-.9488-3.0657-.0848-.2892v-.1769l.391-.5933.4704-.4248.6855-.6045.1133-.0693 1.1283-.4464.1312-.1076 2.5063.1684 1.5246.2565.6748.2873.9961.248.3954-.0197 2.8456-1.1501 2.5305-5.818.2445-.6129.0643-.3565-.1401-1.909-.6695-6.006-.099-.2377-.7641-1.0884-.815-.0196-.6283.059-4.0765 1.9211-.8586.613-.0938.029-.6756-.0402-.2732-.0974-.1945-.2002-1.845-2.7008.5096-.801 2.3297-3.512.9783-1.2672.9684-.6625 2.6376-1.7612 4.4442-1.4346 3.366-.9405 3.7184-.088 3.0705.2078.133-.0505.7346-2.2955-.1883-1.2671-.0384-.2078-.2749-.159-.4847-.118-2.2475-3.8798-.1625-.612v-.4146l.6115-.6438 2.5474-1.139 1.4165-.5043 1.987-.5147 1.0434-.0505 2.6099 1.1576 1.0523 1.8304-.6373 1.661.5043 1.5245.1518.2274.2437.1675.5525.188 2.4635.1695.5293-.0899.5338-.9405.5802-.9797 3.8541-3.2557 3.9828-3.2641 2.8928-4.9766 3.4311-4.3122 1.156-2.04 2.9205-.6635.2454.0524.1303.1974.0286.3566-.2169.5034-.1892.7711.0375.3182.274.3743.648.4146.6221.0898 2.8545.0496.8632-.0196 3.0446 1.633.0642.0973 1.271 1.456.6178.5438.7363.4932.1598.1778.1562.3752-.2883.7824-.1026.1581h-.0929l-.5909-.1778-.6507.5652-.524.7421-.1624.336-1.362.248-2.1726 2.5425-.1303.2957-.0107.0899.0482.1497 1.8405 3.294.491.5643.3132 1.4852.6748 4.0277-.0848.1974-.665 1.0697-1.1478-.0496-1.438.2564-.4579.0795-.9577 1.5815-.1794.407-.4535 1.8698-.0651.2948.4534.7327.5891 1.078 1.5433.525 4.7227 2.058 2.9964 1.5524.1231.2171 2.0655-1.1173.2446-1.1099.0865-.4454-.067-1.2765-.065-.1375-.4589.0205-1.5334.7712-1.5853-2.6016.9685-1.4056 3.9247-3.4624.3874-.2574.1562-.0384 2.8607-.4257 2.7608-.3856.2544.159 1.1175 1.897.3017.5558.0384 1.0977-.0384.1292-.3936.2302zM255.5926 171.0286l.4017-2.128.3775-1.4533.2259-.8404.6471-1.9605.207-.2947.3509-.0197-.0866.4866.1142.6233 1.5183 1.938.9408.9115.4704.2162.6748-.3463 3.1473-4.1362.3311-.524.2919-.526-.0098-.306.0642-.7131 1.006-.059 1.1086.029.2222.1872.8596.1975.448.0505h.6695l4.355-3.5317.7194-1.8183-.4446-.584 1.28-.8805 3.823-1.939.2543.0402.1768.0786 1.1478.6822-.1133.8002-.5418 1.326.1285 4.373.6695.8329 1.4254 2.0279-.2035.6232-.0375.0973-1.1184 2.493-1.836 1.5534-.5802.5934-.2642 1.1098.0562 1.9493.7596 2.2665.1901.1872 3.1196 2.2852.3383.0777.4248-.059-.1222.584.2169.7411 3.3302 3.7507.4811.9695-.1303.0103-.1696.089-1.9824 1.1388-.3303.1872-.2213.2377-.1705.2573-.5383 1.3934-.216.2386-.1669.1189-.3284.0496-2.8653-.1292-.341-.0786-.3953-.2779-2.2699-2.245-1.571-1.881-.3302-.4744-.4597-.5437-1.571-.9798-.4935.6925-.5391 1.2165-.1607.8507-2.5144 1.939-.3785.029-1.4112-1.2372-1.886-1.88-.665-.86-.2927-.2096-.2268.1488-1.146 1.3373-.7409.583-.2267.1076-3.0437-3.2856-.066-.554-.8543-2.0869-.7408-.8.2749-2.0785v-2.6409l-2.4466-.3453z"/>
  <path d="M190.9676 173.7687l.5124-.3463.1616-.4267.066-.2461-.0384-.7328-.0562-.3163-.1116-.2873-1.9155-3.5317-.7694-1.2568.865-1.108.8256-.0692 4.8137.2555 1.5022.2489.0562.0889-.9577 4.65.8024 3.6328-.0857.4857-2.284 2.5323-.1607.0103-1.629-.1881-.2857-.1863-.1526-.217.3294-.4942.0562-.1778v-.1778l-1.222-1.7003-.3222-.4417zm23.102 37.8158l-1.23-1.5637-.6106-.4548-.282-.0103-1.023.6822-4.2004-.13-3.365-1.7903-3.7748-1.938-5.7822-.7215-6.7069-3.79-.2445-.8114-.0099-.6335-.0187.6822.199 1.2287.3535.8001.2812.526.656 1.0087 1.3835 1.168 2.1226 1.0677.7123.3182.8131.1179.6855.188.3196.2874.2258.4753 1.4067 3.9267.1312 1.2371.8167.584 1.7504 1.9782.4391.6336.0563.5942.0562 2.4434.4338.4745.4856.436.274.0693.9408-.3369.3302-.1376 1.2032.0103 4.771 1.7331 2.775 1.139 2.9018-2.6026.0473-1.8407-.3401-4.4638-.7025-1.1473.075-.1197.124-.0684.8641-.335.9015-.3575-.2455-.5568z"/>
  <path d="M512.177 185.4438l-.1892 1.9193.9489 3.0779.7363-.0197.5793.1189.292.86.066.465-.873 2.0186-2.1716 3.4428-.4633.2283-.1508.1386-.2973 1.968-.1312.9011.0107.2274.241.991.1134.3744.9292 1.267-.2312 2.3948-.067.494-.49 2.9872-.5998 2.1186-.5204.918-.225.2967-2.9124 3.1958-1.0917 1.0996-1.5013 1.3344-.8381.466-.7132.247-1.8976 1.3458-1.3068 1.3064-.2437.86.0277.1469.2544 1.545.9765 3.6693.3124.6635-.0937 1.2277-.665 1.1492-.7078 1.0182-.4213 1.0387.0285.6036.0563.1694.316.5952.1499.1684.614.2882 1.6416.1367 3.3463 1.3943 6.971 4.7492 1.3621 1.3654 1.4317 1.7396 1.5192 1.9006.0652.089.2169.3752.1615.6532 1.8691 1.8697.873.6223 1.628 1.1286.7329.3856 1.2781.6635.7686.406.2749.0984.4373.0889.283.159 1.5433 1.0987.382.4351 2.086 2.8.141.277.1892 7.2815-.1232.6232-.124.248-1.5397 2.8205-.6695.9498-1.404 1.0294-.2544.1881-.283.3463-.1803.4248-.0928.4764-.3258 2.1467-.075.713.9292 1.503.2357.5156.3088 2.5023 1.3344 5.2536.0643.2377.1705.2087.8435.9901.1785.1778.3686.1872.6552-.0403.282.06 4.2104 1.108.0857.0392.2597.2087.1883.2564.8828 1.2961.1027.1778.0187.2171-.1973 5.9948-.049.4155-.4205.861-.731.9685-.1223.2489-.0107.3275.2687 2.4032.3588.7804.282.4165.4481.4847.2.1385.6507.059.5525.176.3775.2086.5347.4061.3677.3865.8444 1.4243.0277.2957-.3865 3.077-.05.1188-.316.6822-1.2692 2.2562.1133.0693.2446.5643-.1598 5.6101-.8649 3.1761-2.6224 3.7685-1.0318.9124-1.5147 1.6424-.3169.3752v.0683l.0277 1.0977.0473.4876.7328 1.1772.1785.2873.1508.1086.9114.277 2.5456 5.8871.4428 1.0388 1.3728 1.602 2.0199 1.5937.3026.2078.6176.526.4954.612.6043 1.3166.448 3.9472-.7122 2.523-.798 1.2764-.8738-.743-.7337.713-.5811 2.1964-.0937.249-.1402.216-.4221.5148-.1509.059-2.8482.2957-.4767-.0684-.3775-.0907-.1313-.1582-.3909-.7019-.1312-.6232-1.9726-.8001-6.2008 2.3049-.3205.2377-.1124.3369.0098.3556.075.5044-.2928-.1694-3.0705.4155-3.88 2.2946-2.6153-.9499-3.5864-.4856-2.7358.0898-1.156-.1984-.3534.059-1.894 2.8785-1.3488 4.154-1.2692 5.1666-2.3796 3.2744-6.7132 1.444-.2919.0505-2.4912-.0796-1.412.555-1.8325.9507-.7498.5325-2.7697-.3556-.4534-.0983-.7408-.4248-.3035-.4062-.4142.6327-2.959.0898-1.7735.0505-.3124-.0402-2.5894-.8104-4.388-2.8205-1.9154-1.633-2.0637-1.9194-.524-.4248-4.0487 2.275-2.3394 2.1775.008.1386.0955.9975-1.5254.4473-.458.117-2.0377-.0496-.1892-.3752-.199-.5933-1.363-1.7116.6881-3.4531.2-4.8775-.141-.6326-.1991-.6345-1.006-2.5715-1.6646-3.8303-.4008-.7617-2.3609-1.326-.1687.2882-.2919.2966-.657.4454-.5131-.2957-2.1512-3.6309 5.7563-4.0071.4633-.526 1.246-2.3544v-.1292l-.0321-.4473-.4169-.8796-.2427-.2368-.4294-.407-2.9625-10.9527-.0107-.2368-.0107-.2077 1.5531-.2583-.0187-.583-.1223-.5736-.6471-.6729-.3687-.248-.8078-.0393.058.6223-.3025.1993-1.8325.7805-2.103-.1975-.141-.0196-.265-.176-2.7037-2.93-4.3514-2.4237-.9488.3566-.4632-.0197-2.161-.5718-4.3987-2.653-.4293-1.3456-.3133-.0197-1.6165-.8787-1.429-.8413-.6185-.4136-1.779-.862-.8256.0104-.3954.554-.141 1.267-1.6228 1.2072-.6855.1189-3.5337-.5652-6.4374-2.6212-4.097-2.6717-1.486-1.7612-2.3637-3.2239-1.8637-3.0095-2.6099-3.5112 1.6334-3.8798-.207-3.7694.2445-2.3152.1134-.4455.5097-1.6722 1.0425-2.405.0937-.1582.2205-.1086 1.0613-2.244-.5793-3.208-.3588-2.6707-.1687-1.5441.7747-2.0167.5133-.9592.2749-.8712-.3312-3.0582-4.9493-1.8005-.1607.8796-.0384.1367-.283.437-.9952.306-1.0514.1778-.7712-.9601-1.6317-2.028-.0375-.0402.0375-.7018 1.5852-6.6592.807-1.5226.3677.1086.3775.0197 1.4532-1.1174.3686-3.4438-.0187-.5437-.2446-.8319-1.0613-1.6732-1.1086-1.8978-.0276-.0983.3784-4.155.3115-1.0696.599-1.2072 1.3094-.6822.1776-1.6928-1.0979-4.5817-.0866-.2555-.557-.3865-1.32-.6233-1.3827.6532-.8158.4474-1.4683.5137-.7507-1.8594.0277-.6345.2214-.6045.1231-.1582-.665.6438-7.3388.9106-.2544-.0496-4.6575-1.574-3.2044-1.3663-.3133-.1685-.1972-.2077-.2276-.4651-.0563-.4548.0473-.1872.1696-.3752.4624-.5147.4766-.4249.1241-.1778.0857-.2564.0187-.2274-.0276-.2573-.0866-.248-.2151-.2873-4.6218-2.8102-.1982-.1086-.34-.1675-.3535-.13-.482-.0796-.1509.03-.881.5446-.665.4847-.2749.0796-.4703-.0899-.1955-.1282-3.1839-2.6624-.2169-.2386-.1231-.2667-.0482-.3565.0482-.2873.7676-1.0771.0937-.1591.0188-.1881-.0643-.2274-.1901-.1685-.2062-.1188-.1839-.0496-.4338-.0393-.2267.0393-1.2487.5343-.5356-.0196-3.9167-.99-.5659-.177-.5043-.3761-1.0345-1.1473-.632-.743-.3248-.2668-.3678-.188-.4632-.0394-.3642.0393-1.8155.5334-.3455.0992-.2436.1479-.9203.742-1.5138.8498-.4097.0103-.207-.0393-.2545-.1479-2.667-2.8682-1.023-1.2961-.066-.1881-.0285-.306-.0268-1.3663 5.0163.307 2.4627-2.0392 3.0151-.3752.714.554.0269.2386.5721.278 1.4585.277 1.3737.0495.7685-.5652.2928-.918.5721-2.3742-.6105-3.8293 3.4588-3.3043.5043-.4061 2.443-.0393.9113.0673 1.5192.9012.6221 1.3644.5623-.0973 4.9352-1.1576.1892-.2162.0214-.1085-.1187-.3276-.9854-1.7405 2.8643-.2172 4.4727-1.7115.3464-.2265 3.3436-2.5042.3311-.4651-.141-1.6601 1.8494-2.771 1.3746.2668 1.5183.2161 1.3246-.5044 4.9351-1.0593.2981-.0187 3.4499 2.77 1.7744.5643.49.3453.541.16.6614.3266 1.6602.9405.8738.742.4517 1.3355 2.211 2.6127 2.9026-.3678.1794-.1983-.0384-.4848 1.5763-.3565 6.8533.6728.6926.1292 3.0241 2.958 2.2003 2.3957.3391.6438 1.0417.1189.7426-.2864 1.0327-.4164.0197-.1366.074-.059 1.5907-.5446 6.5024-.1872.6088.1872.0392.0402.1875.4857.0187.147-.93.5838-.8301.6832-.242.3846.0099.059.1312.1179 1.8494.8319.141-.0196.2696-.1498 6.258-7.1533.3882-.3752 2.02-1.0294.1606-.03 1.7272-.2367.274.5334.208.5933.7292 1.6433.1615.1871 1.3255.2096.44-.8122.1135-.6326-.0099-.4754.0929-1.1492.1704-.7019.3205-.4763 1.621-1.473.9782-.4856 3.1383.0505.1892.1076.35.5044.0562.1881.1124.831.9676 1.5245.3213.0982.6266-.2882 4.2282-4.6594 1.9075-2.6904.0562-.0899-.0098-.1085-.2642-1.6929-.2223-1.2175.4213-1.502 1.0515-2.652.1883-.4651 5.8813-5.9162.8488-.802 1.5567-1.295 2.3984-.1882 2.4546-2.2759-1.2229-1.1576-.141-1.296-.0098-.307.2267-1.8108.0643-.2966.3258-.5933.4632-.1189 4.4647 5.422.865 3.0967 1.3165 2.9477 1.4433.614.5186-.2378 3.0339-.5643 2.3984.394 3.4641-.1179.6418-1.3064 5.6536.3669.6507.4548.3731.6438.217 2.6624-.0188.494-.4758 1.8408-.124.4454-.3776.919-.9015 1.5431-.7025.9789-.964 1.2081-.9006.9985-.656.6233-1.4005 1.7799-.4285.7524-.0937.4454-.1615 1.1389.9863.1188 5.2055.1872 2.236-.3753.7238-.247 1.8057-2.6512.5516-1.6825.1402-.8713 4.4843-1.9792.2785-.0197.3562.0974zm-52.6544 68.4082l-.5561.9901-.591.801-.414.335-.3464.1985-.3883.1291-.6462-.0196-.8114-.0506-1.0238-.2162-4.9975.1582-1.0051 2.086-.0268.0991.1223.2864.4633.5652.3248.2667.0938.1376.0187.1272-.0562.3584-.9765-.0786-.449-.0907-1.1095-.5044-.4427-.2677-.4641.1376-1.4898 1.05-.0383.3752-.3776 5.757.0464.5728 1.4496-.2957 1.4067 1.049-2.002 2.74-.3723.2883-.4061.6345-.2535.5146v1.4244l.4052.494.357.6514-.5373.9798-.449.4763-.8863.5053.1509.7215.207.1778 1.8406 1.2063 1.7628.1198.5784-.059-.4873-.1095.0767-.6036 1.9825-1.3064 1.4076-.5549.1874-.0496 1.0604-.0795 3.0062.6737.8819 1.2166 1.6932-.8909 2.6287 2.7026 1.7878.1376-.207-3.018.0276-.1581.0866-.0908 1.462-.7215.6427-.306.4669-.1488.6694 1.733 3.3784 1.1287 6.3008 1.8697 1.1238.2461 1.42-.5137.35-.6523.0473-.336-.1312-.3265-.216-.0103-.4669-.1498.0099-.2367 1.6155-1.415.6088-1.604.7265-2.3151-1.3737-1.4945-.7988-.059-2.2645-1.5534-1.438-.4351-.6748-2.9478-1.4308-3.2753-3.1767-3.5224-4.1621-8.1321-.7873-.4361-.715.5727-.5185.743-.5418 1.326-.3883 1.109-.524.1684-.9514-.5446-.5052-.4614z"/>
  <path d="M459.5226 253.852l.4864.4464.9524.5428.524-.1685.3873-1.108.5418-1.326.5186-.742.714-.5737.7882.436 4.1613 8.1322 3.1767 3.5233 1.4308 3.2734.6748 2.9488 1.4389.4351 2.2635 1.5534.799.059 1.3736 1.4935-.7257 2.3171-.6096 1.602-1.6147 1.416-.0107.2377.4668.1478.2178.0103.1303.3285-.0464.335-.3517.6522-1.4147.5147-1.1291-.247-6.2946-1.8707-3.3829-1.1276-.672-1.7313-.466.1479-.6418.305-1.463.7216-.0856.0898-.0277.159.2062 3.018-1.7887-.1375-2.627-2.7007-1.694.89-.8828-1.2185-3.0053-.6728-1.0604.0786-.1875.0514-1.4058.554-1.9833 1.3064-.075.6045.4856.1095-.5793.059-1.761-.1189-1.8415-1.2072-.207-.1778-.1518-.7215.8872-.5043.449-.4745.5391-.9807-.3588-.6523-.4053-.494v-1.4235l.2527-.5146.406-.6336.374-.2882 2.0057-2.741-1.412-1.049-1.4478.2957-.0482-.5727.3775-5.758.0384-.3753 1.4915-1.048.4633-.1377.4445.2668 1.1095.5044.4472.0898.9773.0786.0563-.3556-.0188-.1291-.0928-.1385-.325-.2677-.4632-.5633-.1231-.2883.0276-.0973 1.005-2.0878 4.9986-.1581 1.0229.217.8096.0497.648.0196.3873-.1291.3455-.1975.416-.335.59-.802.5739-.975zM382.637 470.1942l.8248.1768.6114.5933 2.285 2.4753-.0384.3977-.199 1.6011-.2794 1.6442.3642.2761 1.0327.1787 3.9872 1.2334 1.7735.7038.4097.6045 1.3371 1.3747 1.0702 2.4817-.0562.1694-.0473.0983-.656.5324-.8444.2172-.3687.3967-.864 1.1099.133.2863 1.1345 1.0706 2.9223 1.632.2267.1966 1.0042 1.1183 1.2496 1.602.9024 1.9503-.0571.3472-.1794.554-.6025.6223-.2883.9199-.0188.4735.1687 1.4552.2214 1.1688.0767.1768.491.584.0758.0486.6275-.2049.4526.1292.9104.7308 1.3737 1.4936-.2812 1.9305 3.44.5643 2.9572 3.1471 3.6703 2.2647 1.4969.0393.8818.146 1.2702.7318.5623.8525 2.501 4.5209-.0562 3.265-.265.246-.5232.6533-1.9913 3.9088-.5284 1.632-.2731 3.1472-.1366.6317-3.7998 2.7606-.0383.2564.0383.2283.3303 1.2746.4106.7028 1.6932 2.492.1598.19.1892.1188.4294.1189 3.9827 1.196.1517.0683.358 1.5431.6944 4.9879 2.452 5.5493.8541 1.2876.3678.3163-.3026.3669.8372.553 1.1095.4165.4802.0514.1143-.3977.0928-.0898.2687.0196.2749.4361.0759.1993.132 1.2952.0849 1.9886v.5268l-.0375.1086-.548.7514 1.5432 2.4135 6.1053 5.0758.274 1.1894-.1607.701 1.3354 2.5734.4302.2349 1.0041.3303 4.4817.6906.5954-.0093.1187-.089-.175-.5361-.3302-.424-.075-.6635.5132-.0673.7552.0889 2.6384.4557.2821.0665 1.3835.8122 1.8316 1.7987 1.811 2.476 5.2145 7.2816.7846 1.1183 1.4817 1.3943.8274.6925.225.117.3133.0122.0642 2.798.806.874.9578.701.7613.465 1.5505.6626.5623-.176.623-.2685 1.2122-.3163.3623-.0196.4258.1871 2.1993 1.6424 1.2318 1.019 2.8545 3.3259.5088.8113.59 2.1253.8908 4.009.9693.6906 3.9167 2.7428.1803.028.5757-.1188-.0294-.8384-.1223-.3959-.0759-.496.0375-.8497 1.3166-.5343 3.0722.1375.2642.1676.1562.1487 2.2565 2.611.939 1.2577.6694 1.6236.59 1.3663 1.023 1.2343.3123.1291.7784-.0196 1.6557-.0683.2785-.1488.357-.3762.5392.014 5.16 7.974 1.1559 2.492-.5195 2.0878-.6105 1.998-.8007 1.5038 1.1658 2.127 1.0523 5.352.0286 1.5235-1.1836 4.2448-4.097 6.0471-.1892.1563-1.2835-.334-2.5939-1.4169-.2374-.2068-4.4799-2.958-4.7834-1.9016-.3302 1.515-.1553.306-.6891.802-.9676.8497-.4338.2153-1.7717.597.6792.86.0562.0974.6177 2.5135-.0375.1881-1.1193 3.6422-.2356.4857-.2455.9292-.0098.3556.0384.1703.6882 1.166.1231.4361.0188.276-.0759.3576-1.1363 4.6593-.1695.4548-.141.248-.2366.2555-4.5174 4.8802-.481.395-3.515 2.4536-.324.1872-.4178.0795-4.4353.059-2.5064 1.4832-.4543.1975-.665.1291-1.0907-.028-.5391-.0197-.5043.1198-3.5052 1.9876-.3026.2171-.2874.3163-.1616.277-.2936.6916-.1884.3584-2.0654 2.523-.3196.2938-.3267.2292-.3775.176-.2919.0674-1.6522.0898-2.5474.4483-.1857.059-.2535.187-.1981.2874-.0393.1787-.0384.6438-.075.2667-.8541 1.9212-.7882 1.0276-.1598.1984-1.935 1.5927-2.3119 1.9998-.4552.6027-.1027.159-.0187.2583.2464 1.7228.1892.7281.2802.655.5722.7712 2.5582 2.2272 1.7932 1.5422.722.7814.3678.4866.2553.4857.0651.2367.8159 3.4036.208.4248.2329.2377 2.1404.4155.4347.1965.1973.1778.8256 1.2287 2.011 3.3147 2.5109 4.7295.1687.4352.057.4267-.0767.2957-2.3029 4.2935-3.3356 6.9858-.0098.1787.066.1984.4901.5643.7703.5924 2.9866.2377.8631-.0674.2553-.131.6373-.4745.141-.188.0661-.1592-.066-.1067.207-.4145.141-.0608.4383-.0384 1.7629.9012.2437.1871 1.312 1.7603 1.9155 4.9195.1027.424-.1589.7027-.2695.307-1.1488 1.4158-1.646 2.6914-.09.6513-.5017 4.1662.0187.1366.1223.1694.275.2461.2972.1011.2642.2255.0767.2377.1303 2.1374-.0098.6822-2.4358 2.7812-.1786.0974-.1615-.0506-2.3547-.9994-.7185-.3453-2.6278-1.5348-6.8514-4.8858-.6106-.626-.6846-1.1268-.3124-.9592.1026-.336.648-1.7798.864-.9686-2.392-5.2143-1.3175-.4145-3.44-.9976h-.7257l-.3776.0262-.731.1703-3.5052.801-.274.0787-.4677.6915-.806 1.8118-4.313 2.3076-.822.0487-2.1655-2.2974-1.6084-2.2834-.1044-.2386-4.6763-.5325-1.6013-.6223-.1973-.1581.141-.4267-4.2754 1.6928-1.0319-3.3342.3205-.5943.3999-1.0284-.1277-.4268-.3972-.5652-.4525.1703-3.8417 3.937-.1223 3.2463 1.0327 2.3647.2642.9499.4392 1.8201.0098.1975-.0535.2377-.1134.188-.141.1077-1.221.2892-3.3285-.089-2.9018-.3078-1.3728-.832-2.5234.743-3.2052-.4145-3.4776.4857-2.8759 1.167-1.0514 1.9071-.1884.1226-.9113-.0711-2.4921-.4726-8.701-.0412-1.0344-.189-1.5844 1.0706-.1044.1385-1.014 2.3133-.1044 1.049-.008.2087.0187.1787.1026.248.0482 1.313-.9586 1.0705-.216.0983-3.9113.9395-3.0821-.307-.5909-.1759-.4249-.5549-.2124.0983-.216.1694-1.222 1.4748-.1508.3546-1.5245 1.8286-4.8753 4.5424-.5035.9302-.1508.3565-.2919.9284-.3588.4772-.7043.4352-.1776.0598-2.5885.278-.2178-.0197-.1508-.189.0928-.4052.9783-1.7724.806-.7917-.1687-.365-.1312-.0926-2.7028-.0702-3.0544 1.2587-.3204.1778-1.1568.6906-3.0803 1.6142-4.7325.25-.5954-.0413-1.0621-.217-.5615-.278-.1125-1.137.1304-.4464.0767-.0973.523-.101.2545-.2359-.0938-.8722-1.4299-1.749-2.0485-2.229-2.9125-.6523-.1972-.0197-.4392-.2246-.1232-.3762.0482-1.2755.4008-.4136 1.7513-1.3962-1.213-1.852-1.9629.2387-3.4694 1.4252-2.1039-.4267-4.3602-1.851-.1884-.5934-.0285-.2966.0562-.176-.0759-.2489-4.5254-.7823-1.0898-.0973-.7177.8796-.4106.8703-.0107.1591-.5284 1.3747-.2642.0309-2.7706-.1291-2.1904-.454-1.7557-1.178-.4168-.3173.3891-.6046.5615-.714.1981-.9498-.0375-.7515h-.2356l-1.953.3163-.1223.0403-.3463.6148.1143 7.0822.589 1.6404.1411.1703.1794.06.3722-.1507.5847.2966.4284.5138.0643.7234.3034 3.6487-3.5614 5.015-4.329 5.7982-1.3451 1.355-2.642 1.7238-2.4592.9498-3.988.7505-.2589-.0075-.1044-.3677-.0268-.4763.2062-.8488.2115-.7225 2.3413-5.6803.5766-.7608.6543-.9789.0383-.0992-.0562-.8-.4338-.612-.1365-.0516-2.8215-.3275-.7694.6251-.0277 1.021.0375.365-.2365.2367-4.0961 1.3644-1.4005-4.708.49-1.0088.5347-.2386.1026-.089.624-1.0387-.8123-1.4626-.7685-1.0884-1.7075-2.0279-1.8414-.7823-.7846.2283-.466.0094-.1231-.0506-.358-.3864-1.878-3.3643-.0097-1.0078.0187-.6233.1687-.7626-.199.189-1.954 1.1164-.6694.2892-2.9946.0973-3.6328-1.8183-.0384-.2002.1312-.3538.1134-.0992.1285-.0393.1607-.218.15-.2948.0945-1.7724-.2365-.7917-1.3121-.8413-.1312-.028-1.4487.0683-.7247.5848-.5749.8703-2.2279 3.2164-3.3972-1.1174-2.849-1.2362-.7882-.5334-.2848-.7926 2.369-1.88 1.1094-.7908 2.103.1769.0473.3462.0955.206.2258.1787.3722.129 2.7849-.1375 4.9208-5.2442.067-.1086 4.2647-.2508 4.8753-.0758.2642-.4875.939-1.2269.217-.2274.1419-.0786 1.1942-.2096 2.3127.467.0232.0271.2919.5334.0277.0992.7783 3.324-.0598-.2864.3722-1.0799.34-.4033.5517-.744.3954-.2377.6275.1385h.1696l.9854-.9592.6043-2.099.009-.5643-2.2744-5.8338-.0482-3.4662.9033-.0196 1.1836-1.1165-.2446-.7327-.4008-.276-.4623-.6037-.4722-1.019-.4204-2.3564-.1321-3.2557-.0098-.3762.0187-.3275.1875-1.6798.3365-1.3363-.7132-.4866-.3026-.2564-.2214-.2555-.1883-.3771-.1303-.5709.0366-.5353.1035-.4351.124-.2274.151-.1694.2302-.1478.6418-.1488.5909-.1292.0562-.9667.217-1.7424.3578-.6354.4963-.525.141-.6326.2366-2.2647-.0482-2.7812-.1607-3.1864-.731-.701-.748-.86-.0759-.1272-.2222-.6045-.773-2.6212v-.4548l-.2696-.6251-.3016-1.6396-.1322-.744-1.0898-8.2809-.865-.8712-2.5554-4.2055-.7248-1.4243-.348-1.8707 1.345-3.3118.1223-.1993 1.0988-2.0972.2553-1.604-.142-.6615-.282-.4483 1.4219-.117 2.9482-1.7611.8444.6822 1.0238 1.267 2.0476-.4548 4.238-3.9079-.1794-.5259-.2116-.4735 1.388-.7636.2178-.0974.432-.0608.8363.3874h.515l.583-.0795.9577-.584.0758-3.6599-.0473-.5652-.864-5.3706-1.1657-1.6826-1.0533-1.5431-.5096-.7515.0482-1.2568.0473-.2096.7605-2.2861 3.6105 1.196.5516.1899 4.2648-.9695 1.4397-.0786.3115.2386.124.1685.0483.2863-.8872 2.0288-.3838.2873-.0929.176.0464.2292.0286.0197.9006-.0421 1.9467-.6504 1.3068-1.515.3017-.4062-.282-.5942-.2.013-.5606-.5773-.6042-2.4022-.0572-.7992-2.2644-.7805-.184.0197-.2356-3.0685.6168-.2761 1.08-2.9394.0188-.059.3115-4.81.1142-5.7683-.341-1.7508-.4328-.584-.0813-.1076-1.1558-1.2568-.6418-1.8417-.1321-.3265-5.4537-4.1663-3.7337-1.66-.141-.9714.0098-.6514h.1312l.3784-.1871-1.1844-6.2437-1.8494-3.512-1.5344-.6748-1.3362-.73-2.311-1.6535-.2596-.3256-.0286-.1591.1892-5.8292.8533-2.5304-.481-.801-1.7549-4.0567-.0866-.3163-.0366-.2686.2642-3.3034.282-.5849 2.0379-.0683.6105-.2864.2437-.4351.066-.1984-.557-1.5824-1.0157-2.1384-1.0533-3.6683-.1294-.0543-.9006-1.2343-.0491-.584.0375-.1759.199-.4464.3508-.3472-.2553-1.2652-.723-1.6722-.5944-1.0397-1.005-.1975-.3018.0899-1.3585 1.3522-.0473.0814.2178.306.5873.554.5623.1385-.4757.8703-.1696.1984-1.9253 2.2562-.3186.1189-3.616.2358-1.3629-.3331-.1705-.1002-.7212-.7608.1223-.6345.3642-.4042.1508-.3678.0268-.1086.141-3.9266-.141-1.02-.0268-.1086-.6194-2.0859-.1027-.2573-.2365-.06-.415.0403-.2598.0496-1.5326-2.5304-.208-.9302-2.1136-7.8261-.6186-.6644-1.5236-1.5797-.9854.3556-3.756 1.3532-2.368 1.415-.7882.3976-.4811.0712-1.2889-.7346-.4472-.6822.3383-1.2952.099-.0814.4919-.2545.0562-.2892.5633-5.598-.1286-.9199-1.0916.5353-3.8096 3.8686-.1223.0796-.2052-.0103-.233-.1095-2.2922-1.5638-.2544-.2274-.208-.3752-.0562-.1984.0366-.3547.1518-.5446.0098-.2499-.075-.1853-.25-.2498-.1999-.1769-.207-.0599-1.156.1291-.1606.1498-.358.494-.5908.9808-1.1068-.4763-4.969.248-2.0101.2386-.3874.0505-.2375.1086-.1133.2255v.5362l.4266 1.7388 1.3452 2.3741.7881 1.2568.5516.0805.6507-.0693.283-.0786.0375-1.5244-.1321-.4941.316-.5353.8113.2162.9203 1.6442.391 1.5834-.6758 3.0956.4713.4679-.1883.5025-.6052.7824-1.3201.2564-2.0806-.6916-2.6582-.4145-1.1282 1.7097-.6177 1.05.5044.7514.066.218-2.161 2.8776-.514.306-1.0533.336-.5392.1291-1.1559.2284-4.4165-.0197-.1758-.028-.8667-.3594-.798-1.532.7293-6.5215 1.2121-3.485.4445-.2246 1.4487-4.038-1.0542-4.9672-.1606-.118-.2062-.0692-.6936-.159-.3508-.0197-3.8872-4.0764-.2356-.2657-.0857-.3669-.1035-1.3457-.0277-.5942.1883-.0505.8168.0992-.6373-.8797-.0938-.219-.3392-2.8495-.0857-1.9278-.1312-2.6707-.3365-2.8309-.0366-.2058-.3115-.4474 1.4094-.83-.3195-3.6431-.1232-.2574-.282-.2545-.1241-.0599-.458-.1478-.5185-.0197-.2705.0599-1.1559-1.0472.5793-1.2287.416-2.3236.6551-1.1098.4633-.5709.1133-.0898 12.024-3.4653 8.6546 1.7743.274.0777.0946.1197 1.6593 4.0371.482.4052h.1732l1.204-.1385 4.5585-.861.358-1.108v-.7514l-.3874-.9713-.217-1.1483-.5989-3.7994.316-3.1957 1.0613-2.3657.973.3471 2.7223.731.6935-.0197 1.4201-.0974.1143-.1.066-.395.8355-2.2263.6177-1.1969.2927-.5063.1125-.1562 1.5245-.5737h.6088l.0857-.029.6471-.2658 1.438-1.3662.6863-.714.3874-.7506.1027-.3668.0758-1.0397-.0758-1.5338-.2258-.5268-.6177-.9396.6096-.5923.141-.308.5035-2.0082.3124-1.4823 3.1767-.9713.6801.5643 2.0003.8712 1.3782-.1675 1.071-.466 1.0426-.6729 1.081-.917 1.421-.8629 3.1463-3.5514.8274-1.2867.415-1.2362.2741-1.5431-.0384-.7122.2508-.0795.3285-.1685.8837-.9199 1.6182-1.88 5.9295-.6635.4802.0496 1.6432 2.2562 1.297 1.8417 4.171 1.8295.4865.4146.4525.494 2.1717 4.8195.3517 2.2646.0178.5446.4775.7028.1509.0187 1.6522.189.831-.3958.789-.4164.2267.9508.2696 1.108 2.0378 2.3376 3.573 1.4037 2.717.6532-.2356 2.6315-.3026 3.3436.589 2.6905.3785 1.0902.1696.4145 1.6317.4165 4.6718 1.7995.2445-.0374.1687-.0814.4008-.714-.1223-1.6405-.1312-.0599-.034-1.5909.0626-.2002.2633-.2078.5186.1086 2.1618.525 2.5234.6045.2552.0402.6177-.1694.6132-.4351.125-.1703.1981-.5643-.0473-1.2858-.3686-.495-.5284-.2864-1.1425-.395-.5552-.1384-.1526-.0515-4.911-3.6384-.3312-.29-.075-.3463-.1615-2.859.19-.8805 6.6998-2.8682 5.9286-.0403h.1401l.1696.0403.4918.525 1.0158 1.8996 1.1987 1.3747 3.2035.5942.358.0515 1.213-.436 1.0416-.4652.34-1.077.109-.1002.6703-.1581.798.0112 1.4486 1.2755 1.2113 2.216-.0375.5736-.3776.1292-.5016.3846-.2865.2686-.3767.4454-.0955.5437.0875.4548.0276.0983.6168.9498 1.9771 1.998.732-.0263.0847-.13.8355-1.7725 2.7795-.4744 1.7887-6.4318v-.059l-1.071-7.0765-.2643-.7814-.3954-.147-.6177-.4472-.1035-1.998v-.1871l.1321-.585.1982-.2376.3829-.1273.4052.1273.0857.1497 1.355-.655 1.9627-1.6592.1982-.7028.9676-1.078.1508-.06 1.4058-.1974 3.1027.6251.2365.2059.2919.4473.5043.7702v.1394l-.2446.6345-.0616.0973-.3954-.0103-.3954.613-.1321 1.4739.0384 1.9689.075.5259.0937.1685 1.77 1.0986 1.5656-.1984.4918 2.0475.589 1.1099 1.496 1.7528.5249.2657 1.6852-.5437.391-.3874.0187-.1965.141-.7215.141-.2377.141-.0973 1.1738-.2574.3472.1787.2535.1975.3785.4539.5043.494.2642.1592h.1883l11.1413-1.604 3.665-1.3663 2.3644-1.1407z"/>
  <path d="M216.916 552.6816l.8685.3575.175.03 4.4164.0196 1.156-.2283.5382-.1292 1.0541-.335.5142-.305 2.1618-2.8814-.066-.2171-.5053-.7515.6186-1.05 1.1282-1.7097 2.6582.4165 2.0814.6897 1.3202-.2546.6034-.7814.1901-.5063-.473-.465.6756-3.0976-.391-1.5805-.9193-1.6442-.8114-.2172-.316.5353.1313.4941-.0384 1.5254-.282.0758-.6508.0693-.5525-.0787-.7881-1.2577-1.3443-2.3722-.4257-1.7425v-.5334l.1124-.2274.2366-.1086.3882-.0514 2.0102-.2368 4.969-.2461 1.1077.4744.589-.9788.359-.495.1606-.1489 1.1568-.129.2062.0598.199.176.25.2488.0749.1872-.0098.248-.1509.5437-.0366.3575.0563.1974.208.3734.2543.2302 2.2913 1.5628.2374.1086.2035.0084.1232-.0786 3.8096-3.8686 1.0898-.5334.1294.918-.5632 5.6008-.0562.2873-.491.2573-.0981.0796-.3401 1.297.448.6822 1.2872.7309.482-.0712.7881-.3949 2.368-1.414 3.756-1.356.9864-.3565 1.5245 1.5834.6168.6625 2.1136 7.828.2071.9274 1.5344 2.5323.2588-.0477.416-.0412.2365.0599.1026.2555.6177 2.0887.0286.1076.141 1.0182-.141 3.9247-.0286.1095-.15.3668-.3632.409-.1241.6317.723.7617.1696.1001 1.363.3332 3.6158-.2377.3187-.117 1.9262-2.2562.1687-.1975.4766-.8721-.5623-.1395-.5891-.552-.217-.3061.0474-.0805 1.3594-1.3532.3017-.0917 1.005.2003.5945 1.036.7221 1.6713.2553 1.267-.3499.3473-.199.4435-.0384.1769.0473.583.9033 1.2371.1312.0506 1.0532 3.672 1.014 2.1365.5579 1.5806-.067.2002-.2445.4352-.6079.2873-2.0404.0674-.282.5839-.2643 3.3043.0384.2677.0848.3163 1.7557 4.0586.482.7991-.8542 2.5333-.1884 5.8263.0277.159.2589.3276 2.3127 1.6545 1.3353.73 1.5343.684 1.8495 3.5008 1.1853 6.2419-.3793.19h-.1312l-.0099.6513.141.9704 3.7337 1.6601 5.4555 4.1671.1304.3332.6417 1.8314 1.1568 1.2558.0812.1104.4338.5821.3383 1.7518-.1133 5.7664-.3116 4.811-.0187.058-1.08 2.9422-.6177.276.2357 3.0667.1847-.0196 2.2645.7814.0562.801.6034 2.4032.5632.5736.1982-.0094.283.5915-.3035.408-1.3077 1.515-1.944.6523-.9015.0384-.0277-.0197-.049-.2292.0945-.176.382-.2873.8882-2.0297-.0491-.2883-.1223-.1675-.3115-.2377-1.4389.0786-4.2656.9714-.5525-.19-3.6106-1.196-.7595 2.2844-.0473.2105-.0482 1.2568.5096.7496 1.0515 1.544 1.1666 1.6836.865 5.3715.0481.5652-.0768 3.66-.9577.583-.5846.0795h-.5142l-.8354-.3865-.4347.0608-.216.0983-1.3862.7608.2098.4726.1803.5269-4.239 3.9079-2.0484.453-1.023-1.2653-.8443-.6822-2.95 1.7612-1.4201.1179.283.4464.141.6616-.2544 1.6049-1.0988 2.0971-.124.1975-1.3443 3.3146.349 1.8688.723 1.4271 2.5573 4.2008.864.8722 1.0907 8.2828.1303.7421.3035 1.6423.2696.6252v.4548l.773 2.6212.2222.6035.0759.1292.7631.8619.731.7009.1607 3.1873.0473 2.7822-.2365 2.2637-.141.6345-.4954.523-.3588.6336-.217 1.7528-.0562.9592-.59.1291-.6426.1488-.233.1488-.1508.1675-.1232.2274-.1035.4464-.0375.525.1312.5736.1892.3725.2223.2583.3016.2564.7132.4857-.3356 1.3372-.1883 1.6807-.0188.3276.0099.3762.1303 3.2547.4204 2.3554.4704 1.02.465.6036.4008.278.2437.7327-1.1836 1.1164-.9024.0197.0473 3.4634 2.276 5.8357-.0106.5652-.6043 2.0971-.9854.9602h-.1705l-.6275-.1385-.3945.2367-.5802.7047-.1981.3752-.3785 1.0762.0651.276-.7783-3.3117-.0268-.1002-.2927-.5315-.0277-.0318-2.3091-.4745-1.1934.218-.141.0787-.217.2274-.9398 1.2278-.2633.4763-4.8753.088-4.2648.2489-.067.1095-4.9217 5.2442-2.783.1366-.3732-.13-.2267-.176-.0946-.2087-.0464-.3453-2.1056-.1797-1.1086.7945-2.369 1.8782h-1.8592l-.7489-.0786-.3034-.146-.2821-.1703-1.279-1.4636-.7141-1.7724-.1223-.8095-.3454-.7327-.5847-.8394-.524-.4455-4.3879-1.456-.864-.2574-.5284-.0272-.3678.0487-1.1898.1984-.2169.0402-.4713.278-.457.146-.3222-.0197-.2365-.1095-.806-.451-1.8022-1.0332-2.4082-1.7004-.9193-.86-.6971-.743-.4669-.831-.1687-.4763-.124-.801.0874-.1676-.0285-.3462-.0491-.0973-.5507-.525-6.8247-4.7109-1.878-1.2567-.2366-.1095-.3195-.5709-.2598-.2105-1.3567-.2462-.3481.585-.199.4622-.0108.1217.1241.2255 2.2091 2.404.6793.5719.4963.3668 2.9295 2.0971.1133.03.4633-.0796.2838.0319 1.4808 1.2942 2.302 5.0964.358 1.4926-1.4202.9012-1.213.2077-2.2645-.9676-2.0476-1.1501-.3535-.2171-.4355-.1367-2.1985-.5259-.3954-.0683-1.596-.1787-.2534-.0085-.3124.0777-1.0533.4352-1.0532.583-.382.2788-.4437.4352-.6909.4314-1.1094.5718-2.5957.772h-.183l-1.129-.7037-4.0952-3.7395-.8962 1.7013-.249.0384-.5106-.2246-3.4213-1.5553-.0759-.276-.9015-3.3344.217-.8094.5757-.6738-1.0185-1.7518-1.4442-1.326-2.0761-.701.2267 1.0584-.3312.5952-.1972.2564-.8266.5718-.2374-.1086-.5025-.802-.2839-3.222-2.5108-.5259-.6757.9995-.3785 1.137-2.8821.6522-1.3264.248-.9676.8394-1.0318 1.3963-2.892 5.232-.4338 1.8913.0188.1385.3767.6822 3.5355 2.681.1928.09 3.4882-1.504-.125-.552.3794-.2583 1.1934-.524.5409-.1302 2.294-.189.207.0131.324.059 1.3184 1.8903.0187.2882-.3535.8507-1.3263 2.8981-.7882.8816-.4918.4726-.9292-.1591-.2267-.5026.1794-.6737.2258-.0899.0768-.1572-.0482-.248-.1134-.1871-.6596-.7543-1.1416-.6223-.0375-.0196-1.0247-.248-3.3454 2.77 1.2229 1.574.324.525.0187.1094-.4954.3454-1.3638.4763-1.6415.4538-.4436.0609-5.9553-.5166-.3303-.0477-.1312-.0608-.2258-.1292-1.4443-1.4159-.1606-.2161-.124-.306v-.3379l.1695-.8497-.0277-.1085-.19-.1975-.5285-.2873-1.6593-.465-2.8652-.5644-.4436-.059-.2437.059-.175.088-5.5634 3.383-.292.3078-.1311.2087-.066.2452-.0849.802-.1704.3865-.391.3265-.2365.0983-4.114.5643h-.1615l-3.7185-.86-3.001-1.2849-.9398-1.4654-.1401-.1367-.3258-.1487-.216-.0403-3.167.1207-1.2799 1.3251-.1678.3753-.9203 1.0294-.4588.2554-2.3876.9115-3.4311 1.0191-.2455.0197-.7408-.06-.6846-.2947-.1312-.1385-1.1086-1.2044-.6052-1.0397.2276-.1291.4258.1366 2.226-.9498.0108-.3173-.1517-.8487-.3187-.9115-5.169-1.4243-3.8872-5.3229-.1687-.2882-.1419-.4061-.0562-.336-.3892-2.6511.0768-.3743.1231-.189 1.4103-1.1698.2071-.235.2446-.3752.2213-.5718.1232-.6653-.0098-.3275-.124-.5026-.8623-2.7016-.0491-.3959.049-.772.0938-.336.8256-2.056 1.098-2.6717.1999-.6438.0473-.4941-.0473-.5325-.3035-.89-.0741-.3574v-.6438l.1134-.495 1.6182-4.462 1.6317-2.3854.4257-.6316.458-.8731.124-.4651-.0187-.6046-.2705-1.1576-.2437-.5923-.415-.7337-1.8977-2.5023-.141-.2162-.075-.2789.0099-.3331.141-4.0474.0464-.3949.5525-2.96.0098-.436.0937-.2545 1.4005-3.165.1509-.2985 1.953-2.681 2.1055-3.0087.1679-.3958.2927-.9976.6007-2.1467.6275-3.4625.0741-.3275.199-.4539.358-.4482.4213-.3341 1.496-.5737.4329-.276.1847-.189.1312-.1872.1509-.3463.0758-.2947.0108-.2892-.6472-3.6422-.0866-.8413v-.552l.076-.6654.124-.612.183-.6046 1.9012-4.8755 2.0583-4.3918.2606-.3967.282-.643.0929-.4959.0098-.3865.0375-3.3427-.0643-.8516-.1892-1.02-.0107-.4436.0384-.2976.1312-.4052 2.3984-4.9054.1312-.2106.216-.218 1.071-.4745 1.3122-.7702.4543-.3668 4.2576-5.146.6632-3.3839.133-.306.1303-.1366.4347-.1984.3535-.0196 2.2261-.5943 3.1098-2.3049.6882-.6532.6283-.8.3865-.6149.2116-.5147.1696-.7411.2383-1.138.3856-1.2072.524-1.5534.3132-.8001.3731-.832.7926-1.5347 3.0054-4.957.2749-.306.2687-.158 1.7878-.5943.3633-.2274 1.4219-1.1557.9577-.7945.358-.3846.2784-.4258.2553-.4941.3776-.8778.0848-.2986.067-.2779.1776-1.312.1758-.8413.4052-1.1089.3187-.612.6382-.993.8738-.9872.009-.0122.614-.7907.4-.6822.1624-.4857 2.1511-9.6266-.141-1.6826-.1509.0403h-.0857l-.0187-.0403.0473-.6625.1625-.5718.2525-.5063.3214-.4061.457-.4136.4918-.3182 1.288-.8731.4374-.4136 1.5727-1.8417 1.2121-.6523.0902-.1974.0482-.4062-.108-.5062-.208-.3323-.3106-.2975-.2178-.1292-.9194-.3284-.1892-.1292-.1705-.2077-.1276-.3575-.0277-.4062.0277-.1871.1187-.3042.2-.2985.4623-.4557.4017-.2864.3945-.3153.4445-.4876.524-.8085.3391-.7945.217-.8712.0365-.5316-.0464-.8001-.1508-2.1486.6926-1.9596.0098-.2966-.0857-.2957-.3124-.3753-.316-.1488-.5016-.0973-.8917.028-.589.031-.5178-.0983-.2088-.0983-.2312-.2077-.141-.1694-.1143-.2283-.0098-.335.1035-.2874.199-.2161.2107-.1704-.3829-2.9852-.074-.5755-.9784-4.1447-.3766-.7935-.0938-.2864-.0383-.3462.0196-.3959.1125-.467.3579-.6522.075-1.0678.1374-.0786.9337-.4753.2794-.0712.2543-.0196.8917.1095.491.4351 1.2969 1.1885 1.8218 2.4527.34 1.109.5624.801.8158.6438.4061.1676.2642.0804.8364-.0411 1.5468-1.2737.5945-1.019.0928-.5063v-.4736l-.8006-3.8012-.5624.0899-.1883-.366-.0375-.7617.2651-.5643 1.5236-.4548 3.5106-.9199.864.2087.1134.4454-.458.9284-.0937.1094-.3873-.1469-.0857-.1787-.3258.189 1.6718 7.1458 1.296.9265 2.0583.961.4097.147 5.801 1.1969h2.1341l-.142.6045.1804 1.167-2.077 1.9689-2.0592.7514-1.571 3.5027-.3356.8114.2704.801.5293.6027.4276.0926 1.6656.0758.1133-.028.2276-.1694 5.783-5.541-.4953-.7907-.6596-.6354.1785-.5942.3392-.6607 1.4156-1.7125.931-.6925.216-.1086 5.0369-1.6928 1.0184.2489 1.321 1.6142.8167-.2283.2642-.3958.0099-.3968-.5043-1.298-.3124-.2349-1.4389-.8122.4811-.4053.133-.2086.3445-.919-.0803-.0795.1205-1.5067zm-26.034 180.3015l-.6552-1.7621-.207-.189-2.2753.1375.2 2.0485.5712.4848 1.844-.1984.6276-.088-.1053-.4333z"/>
</svg>
